<svg xmlns="http://www.w3.org/2000/svg" width="56" height="56" viewBox="0 0 56 56">
  <g id="languageinterpretation" transform="translate(-68.121 -51.438)">
    <rect id="Rectangle_572" data-name="Rectangle 572" width="56" height="56" rx="6" transform="translate(68.121 51.438)" fill="#fff" opacity="0"/>
    <path id="Path_2777" data-name="Path 2777" d="M127.81,76.557H111.835V67.892a2.457,2.457,0,0,0-2.454-2.453H89.957A2.456,2.456,0,0,0,87.5,67.892V81.407a2.456,2.456,0,0,0,2.453,2.453h.3v5.061a.35.35,0,0,0,.593.253L96.4,83.86h9.533v8.664a2.457,2.457,0,0,0,2.454,2.453h12.981l5.548,5.314a.35.35,0,0,0,.593-.253V94.978h.3a2.456,2.456,0,0,0,2.453-2.453V79.01a2.456,2.456,0,0,0-2.453-2.454Zm-21.877,6.6H96.259a.351.351,0,0,0-.242.1L90.96,88.1V83.51a.35.35,0,0,0-.35-.351h-.652a1.754,1.754,0,0,1-1.752-1.752V67.893a1.754,1.754,0,0,1,1.752-1.752h19.424a1.754,1.754,0,0,1,1.752,1.752v8.664h-2.748a2.456,2.456,0,0,0-2.454,2.454Zm23.63,9.365a1.755,1.755,0,0,1-1.752,1.752h-.652a.351.351,0,0,0-.351.351v4.591l-5.057-4.844h0a.35.35,0,0,0-.242-.1H108.386a1.755,1.755,0,0,1-1.753-1.752V79.01a1.755,1.755,0,0,1,1.753-1.753h19.424a1.755,1.755,0,0,1,1.752,1.753Zm-6.5-10.438a.35.35,0,0,1-.35.35h-6.49a7.886,7.886,0,0,0,2.015,5.04,11.028,11.028,0,0,0,1.794-3.2.35.35,0,0,1,.67.206,11.483,11.483,0,0,1-1.979,3.528,11.924,11.924,0,0,0,2.409,1.855.35.35,0,0,1-.179.652.344.344,0,0,1-.178-.049,12.615,12.615,0,0,1-2.514-1.933,8.963,8.963,0,0,1-3.869,2.473.351.351,0,0,1-.21-.669,8.26,8.26,0,0,0,3.6-2.329,8.622,8.622,0,0,1-2.253-5.573h-2.037a.35.35,0,1,1,0-.7h4.263v-.877a.35.35,0,0,1,.7,0v.876h4.263a.35.35,0,0,1,.35.351ZM99.344,69.619,95.6,79.433a.35.35,0,0,0,.2.452.341.341,0,0,0,.125.023.35.35,0,0,0,.328-.226l.908-2.379h5.021l.908,2.379a.351.351,0,0,0,.655-.25L100,69.619a.365.365,0,0,0-.655,0ZM97.429,76.6l2.243-5.876,2.243,5.876Z" transform="translate(-12.883 -3.501)" fill="#007c9d" stroke="#007c9d" stroke-width="1.2"/>
  </g>
</svg>
