<svg xmlns="http://www.w3.org/2000/svg" width="56" height="56" viewBox="0 0 56 56">
  <g id="costestimation" transform="translate(-1002 -6751)">
    <g id="costestimation-2" data-name="costestimation" transform="translate(-380.934 139.812)">
      <path id="Path_2717" data-name="Path 2717" d="M144.341,62.127h20.718a.641.641,0,0,0,.641-.641V53.551a.641.641,0,0,0-.641-.641H144.341a.641.641,0,0,0-.641.641v7.935a.641.641,0,0,0,.641.641Zm.32-8.255h20.078v7.294H144.661Z" transform="translate(1252.428 6569.352)" fill="#007291" stroke="#007c9d" stroke-width="0.4"/>
      <path id="Path_2718" data-name="Path 2718" d="M140.233,31.738V13.092a2.149,2.149,0,0,0-2.137-2.151H115.887a2.149,2.149,0,0,0-2.141,2.151V48.18a2.148,2.148,0,0,0,2.141,2.151H138.1a.422.422,0,0,0,.06,0c.211.014.424.022.641.022a9.349,9.349,0,0,0,1.436-18.614Zm-24.346,17.63a1.186,1.186,0,0,1-1.18-1.189V13.091a1.186,1.186,0,0,1,1.18-1.19H138.1a1.186,1.186,0,0,1,1.18,1.19V31.643q-.24-.012-.481-.012-.388,0-.769.03V25.708a.648.648,0,0,0-.646-.648H116.271a.648.648,0,0,0-.646.648V47.35a.647.647,0,0,0,.646.647h16.194a9.551,9.551,0,0,0,2.074,1.371Zm.7-2.333V42.622h5.833v4.414Zm13.2-21.015v4.543h-6.408V26.021Zm7.275,0v4.543h-6.314V26.021ZM129.233,40.99c0,.226.009.449.025.671H123.38V36.989h6.408v.864a9.135,9.135,0,0,0-.555,3.138Zm-12.647-9.465h5.833v4.506h-5.833Zm0,5.467h5.833v4.673h-5.833Zm6.794-.961V31.525h6.408v4.506Zm-.961-5.467h-5.833V26.022h5.833Zm.961,12.063h6a9.248,9.248,0,0,0,2.124,4.414h-8.123Zm7.368-6.681v-4.42h6.314v.265h0a9.585,9.585,0,0,0-6.316,4.151Zm8.041,13.441a8.4,8.4,0,1,1,8.6-8.4A8.507,8.507,0,0,1,138.791,49.387Z" transform="translate(1280.188 6608.247)" fill="#007291" stroke="#007c9d" stroke-width="0.4"/>
      <path id="Path_2719" data-name="Path 2719" d="M422.479,341.062v-.684a.481.481,0,1,0-.961,0v.685a2.286,2.286,0,0,0-1.293.622,2.771,2.771,0,0,0-.758,1.967,2.4,2.4,0,0,0,2.041,2.266l.107.022.267.052c.042.007.138.036.189.051.017.006.034.012.05.019l.019.007.166.063.048.022c.08.04.1.051.16.085l.086.05.019.012h0l.018.011a2.149,2.149,0,0,1,1.079,1.5,1.451,1.451,0,0,1-.388,1.153,2.163,2.163,0,0,1-1.528.522,1.761,1.761,0,0,1-1.66-1.311.481.481,0,1,0-.956.107,2.7,2.7,0,0,0,2.336,2.141V351a.481.481,0,1,0,.961,0v-.613a2.818,2.818,0,0,0,1.522-.751,2.424,2.424,0,0,0,.67-1.872,3.038,3.038,0,0,0-1.544-2.279l-.046-.029-.089-.052c-.069-.039-.106-.061-.205-.111h0a1.39,1.39,0,0,0-.141-.062l-.16-.06a1.25,1.25,0,0,0-.145-.052,2.787,2.787,0,0,0-.285-.075L421.8,345l-.109-.021a1.43,1.43,0,0,1-1.262-1.337,1.793,1.793,0,0,1,.467-1.266,1.577,1.577,0,0,1,1.207-.381,1.845,1.845,0,0,1,1.768,1.315.481.481,0,0,0,.934-.227,2.785,2.785,0,0,0-2.321-2.018Z" transform="translate(997.12 6303.38)" fill="#007291" stroke="#007c9d" stroke-width="0.4"/>
      <path id="Path_2720" data-name="Path 2720" d="M328.978,466.375a.481.481,0,0,1-.481-.481v-3.066a.481.481,0,0,1,.961,0v3.066A.481.481,0,0,1,328.978,466.375Z" transform="translate(1081.163 6189.897)" fill="#007291" stroke="#007c9d" stroke-width="0.4"/>
    </g>
    <rect id="Rectangle_575" data-name="Rectangle 575" width="56" height="56" rx="6" transform="translate(1002 6751)" fill="#fff" opacity="0"/>
  </g>
</svg>
