<svg id="medicalhistory" xmlns="http://www.w3.org/2000/svg" xmlns:xlink="http://www.w3.org/1999/xlink" width="330.4" height="245.769" viewBox="0 0 330.4 245.769">
  <defs>
    <clipPath id="clip-path">
      <rect id="Rectangle_416" data-name="Rectangle 416" width="330.4" height="245.769" fill="none"/>
    </clipPath>
    <clipPath id="clip-path-2">
      <rect id="Rectangle_415" data-name="Rectangle 415" width="330.4" height="245.77" fill="none"/>
    </clipPath>
    <clipPath id="clip-path-3">
      <rect id="Rectangle_395" data-name="Rectangle 395" width="20.195" height="44.699" fill="none"/>
    </clipPath>
    <clipPath id="clip-path-4">
      <rect id="Rectangle_396" data-name="Rectangle 396" width="9.769" height="7.781" fill="none"/>
    </clipPath>
    <clipPath id="clip-path-5">
      <rect id="Rectangle_397" data-name="Rectangle 397" width="10.954" height="9.877" fill="none"/>
    </clipPath>
    <clipPath id="clip-path-6">
      <rect id="Rectangle_398" data-name="Rectangle 398" width="9.693" height="8.496" fill="none"/>
    </clipPath>
    <clipPath id="clip-path-7">
      <rect id="Rectangle_399" data-name="Rectangle 399" width="3.956" height="7.018" fill="none"/>
    </clipPath>
    <clipPath id="clip-path-8">
      <rect id="Rectangle_400" data-name="Rectangle 400" width="8.933" height="7.966" fill="none"/>
    </clipPath>
    <clipPath id="clip-path-9">
      <rect id="Rectangle_401" data-name="Rectangle 401" width="3.725" height="28.297" fill="none"/>
    </clipPath>
    <clipPath id="clip-path-10">
      <rect id="Rectangle_402" data-name="Rectangle 402" width="7.581" height="33.175" fill="none"/>
    </clipPath>
    <clipPath id="clip-path-11">
      <rect id="Rectangle_403" data-name="Rectangle 403" width="18.637" height="7.853" fill="none"/>
    </clipPath>
    <clipPath id="clip-path-12">
      <rect id="Rectangle_404" data-name="Rectangle 404" width="12.892" height="2.838" fill="none"/>
    </clipPath>
    <clipPath id="clip-path-13">
      <rect id="Rectangle_405" data-name="Rectangle 405" width="15.678" height="3.292" fill="none"/>
    </clipPath>
    <clipPath id="clip-path-14">
      <rect id="Rectangle_406" data-name="Rectangle 406" width="11.539" height="2.348" fill="none"/>
    </clipPath>
    <clipPath id="clip-path-15">
      <rect id="Rectangle_407" data-name="Rectangle 407" width="11.207" height="15.686" fill="none"/>
    </clipPath>
    <clipPath id="clip-path-16">
      <rect id="Rectangle_408" data-name="Rectangle 408" width="11.702" height="14.549" fill="none"/>
    </clipPath>
    <clipPath id="clip-path-17">
      <rect id="Rectangle_409" data-name="Rectangle 409" width="27.468" height="16.042" fill="none"/>
    </clipPath>
    <clipPath id="clip-path-18">
      <rect id="Rectangle_410" data-name="Rectangle 410" width="2.956" height="7.118" fill="none"/>
    </clipPath>
    <clipPath id="clip-path-19">
      <rect id="Rectangle_411" data-name="Rectangle 411" width="5.294" height="2.961" fill="none"/>
    </clipPath>
    <clipPath id="clip-path-20">
      <rect id="Rectangle_412" data-name="Rectangle 412" width="7.802" height="7.674" fill="none"/>
    </clipPath>
    <clipPath id="clip-path-21">
      <rect id="Rectangle_413" data-name="Rectangle 413" width="6.691" height="6.765" fill="none"/>
    </clipPath>
    <clipPath id="clip-path-22">
      <rect id="Rectangle_414" data-name="Rectangle 414" width="4.101" height="6.706" fill="none"/>
    </clipPath>
  </defs>
  <g id="Group_688" data-name="Group 688" clip-path="url(#clip-path)">
    <g id="Group_687" data-name="Group 687" transform="translate(0 0)">
      <g id="Group_686" data-name="Group 686" clip-path="url(#clip-path-2)">
        <path id="Path_3895" data-name="Path 3895" d="M46.571,961.031c4.854-6.871,7.17-16.13,3.787-23.833-3.36-7.649-11.987-12.29-20.336-11.971s-16.161,5.083-21.266,11.7S1.055,951.829.2,960.14c-.615,5.993-.035,12.823,4.515,16.771,13.262,11.5,34.458-5.414,41.852-15.881" transform="translate(0 -842.895)" fill="#d3e5f3"/>
        <path id="Path_3896" data-name="Path 3896" d="M2244.416,113.119c7.832,2.711,18.732,3.413,25.606,2.711s14.621-5.563,18.075-11.548c5.025-8.705,1.333-21.753-4.6-29.87-9.522-13.035-26.4-19.963-42.35-18.283-7.272.766-19.314,7.865-21.94,15.819-2.17,6.572.565,16.84,3.715,22.091,5.305,8.843,11.715,15.7,21.489,19.079" transform="translate(-2021.058 -50.909)" fill="#d3e5f3"/>
        <path id="Path_3897" data-name="Path 3897" d="M91.578,483.42c-22.706-3.37-44.917-12.919-58.15-29.03S17.759,415.134,30.958,399c7.906-9.663,20.27-15.979,29.264-24.922,10.889-10.827,16.244-24.88,20.138-38.759S87,307.19,93.747,294.133s18.3-25.123,34.167-29.612c18.989-5.373,39.914,1.1,56.693,10.4s31.376,21.458,49.121,29.342c26.12,11.606,57.735,13.359,81.668,28,27.282,16.695,38.942,48.006,34.19,76.378s-23.783,53.834-47.432,74.171Z" transform="translate(-20.221 -239.21)" fill="#d3e5f3"/>
        <path id="Path_3898" data-name="Path 3898" d="M360.932,7.74c7.244-3.268,17.661-.758,19.844,6.884,5.29-4.531,10.759-9.012,17.123-11.846s13.816-3.873,20.312-1.358,11.605,9.133,11.008,16.073c4.235-2.789,9.731-4.627,14.339-2.513s6.354,9.589,2.035,12.245c-1.679,1.033-3.757,1.1-5.728,1.142L368.377,29.8c-6.287.126-23.882,3.626-24.607-3.066-.674-6.221,12.551-16.688,17.162-18.993" transform="translate(-313.163 0.004)" fill="#b7d2e5"/>
        <path id="Path_3899" data-name="Path 3899" d="M2062.491,272.628c4.932-2.225,12.023-.516,13.51,4.686,3.6-3.085,7.324-6.135,11.657-8.064s9.406-2.637,13.827-.924,7.9,6.217,7.494,10.942c2.883-1.9,6.624-3.15,9.762-1.711s4.325,6.528,1.385,8.336a7.639,7.639,0,0,1-3.9.777l-48.668.975c-4.28.086-16.258,2.469-16.752-2.087-.458-4.235,8.545-11.361,11.683-12.93" transform="translate(-1868.331 -243.568)" fill="#b7d2e5"/>
        <path id="Path_3900" data-name="Path 3900" d="M99.861,1032.148c6.152-9.28,19.316-16.846,29.616-12.857,4.038,1.564,7.215,5.678,6.844,9.992,2.633-1.734,6.05-2.876,8.915-1.562s3.95,5.962,1.265,7.613a6.974,6.974,0,0,1-3.561.71l-29.012.581c-3.049.061-9.647.067-13.493.066a1.879,1.879,0,0,1-1.633-2.8q.487-.879,1.06-1.742" transform="translate(-89.791 -927.611)" fill="#b7d2e5"/>
        <path id="Path_3901" data-name="Path 3901" d="M2400.622,1908.422a59.267,59.267,0,0,1,6.061-15.815l.2.116a59.006,59.006,0,0,0-6.033,15.743Z" transform="translate(-2187.038 -1724.221)" fill="#fff"/>
        <rect id="Rectangle_391" data-name="Rectangle 391" width="29.125" height="0.228" transform="translate(226.383 188.824) rotate(-45.32)" fill="#fff"/>
        <path id="Path_3902" data-name="Path 3902" d="M2163.624,2138.272s11.816-32.957,38.12-42.455l-7.53,23.181a72.09,72.09,0,0,1,22.025.423s-19.935,28.879-43.406,31.28-9.209-12.429-9.209-12.429" transform="translate(-1967.215 -1909.351)" fill="#627d6c"/>
        <path id="Path_3903" data-name="Path 3903" d="M2161.228,1921.916s32.514-46.411,34.805-55.817,4.852,31.375-17.283,47.587c-24.873,18.218-17.523,8.23-17.523,8.23" transform="translate(-1968.019 -1698.804)" fill="#77a388"/>
        <path id="Path_3904" data-name="Path 3904" d="M2511.38,2113.419l4.038-2.06-8.046,11.458Z" transform="translate(-2284.291 -1923.51)" fill="#3d5747"/>
        <path id="Path_3905" data-name="Path 3905" d="M2134.242,1991.688s15.754-24.757,20.853-37.838,4.107-23.389,4.107-23.389-13.363,6.721-17.605,20.694-7.355,40.533-7.355,40.533" transform="translate(-1944.357 -1758.707)" fill="#77a388"/>
        <path id="Path_3906" data-name="Path 3906" d="M2449.71,1823.8a3.67,3.67,0,1,1,1.177-5.055,3.671,3.671,0,0,1-1.177,5.055" transform="translate(-2226.647 -1655.356)" fill="#fff"/>
        <path id="Path_3907" data-name="Path 3907" d="M2753.24,1848.689a3.133,3.133,0,1,1,1-4.315,3.133,3.133,0,0,1-1,4.315" transform="translate(-2503.921 -1678.933)" fill="#fff"/>
        <path id="Path_3908" data-name="Path 3908" d="M2227.759,2424.841l-12.461,11.233,1.206-3.591Z" transform="translate(-2018.202 -2209.102)" fill="#3d5747"/>
        <path id="Path_3909" data-name="Path 3909" d="M2275.314,2439.935a60.3,60.3,0,0,1,14.213-14.854l.141.19a60.054,60.054,0,0,0-14.157,14.8Z" transform="translate(-2072.878 -2209.32)" fill="#3d5747"/>
        <path id="Path_3910" data-name="Path 3910" d="M2333.348,2566.969l-.048-.231a58.6,58.6,0,0,0,19.083-7.628l.125.2a58.831,58.831,0,0,1-19.159,7.658" transform="translate(-2125.705 -2331.424)" fill="#3d5747"/>
        <path id="Path_3911" data-name="Path 3911" d="M2090.975,2098.709a148.732,148.732,0,0,1,30.054-41.436l.166.169a148.493,148.493,0,0,0-30.007,41.37Z" transform="translate(-1904.94 -1874.237)" fill="#627d6c"/>
        <path id="Path_3912" data-name="Path 3912" d="M2425.5,2006.614a8.529,8.529,0,0,1,1.959-4.161c1.124-1.073,3.166-1.342,4.143-.133,1.039,1.284.161,3.363-1.3,4.13a8.135,8.135,0,0,1-4.858.385Z" transform="translate(-2209.647 -1823.447)" fill="#627d6c"/>
        <path id="Path_3913" data-name="Path 3913" d="M2375.829,2106.639c2.649-.913,7.907-.853,7.7,1.942-.223,3.048-6.441,1.066-7.842-1.65Z" transform="translate(-2164.324 -1918.731)" fill="#627d6c"/>
        <path id="Path_3914" data-name="Path 3914" d="M2329.958,2158.052c2.973-.739,8.693-.167,8.2,2.856-.536,3.3-7.117.542-8.381-2.552Z" transform="translate(-2122.497 -1965.784)" fill="#627d6c"/>
        <path id="Path_3915" data-name="Path 3915" d="M2287.546,2210.635c3.155-.365,9.194,1.052,8.627,4.2-.619,3.43-7.533-.431-8.821-3.9Z" transform="translate(-2083.845 -2013.903)" fill="#627d6c"/>
        <path id="Path_3916" data-name="Path 3916" d="M2243.336,2274.111c3.29-.189,9.72,1.7,9.324,5.014-.432,3.614-7.937-.935-9.509-4.709Z" transform="translate(-2043.577 -2071.77)" fill="#627d6c"/>
        <path id="Path_3917" data-name="Path 3917" d="M2198.8,2337.348c3.29-.189,9.72,1.7,9.324,5.015-.433,3.614-7.937-.936-9.509-4.709Z" transform="translate(-2003.005 -2129.381)" fill="#627d6c"/>
        <path id="Path_3918" data-name="Path 3918" d="M2160.458,2398.442c2.934-.178,8.62,1.483,8.192,4.423-.467,3.209-7.049-.807-8.364-4.152Z" transform="translate(-1968.085 -2185.04)" fill="#627d6c"/>
        <path id="Path_3919" data-name="Path 3919" d="M2324.394,2041.551c.092-2.8-1.514-7.807-4.124-6.79-2.848,1.111.877,6.469,3.885,7.009Z" transform="translate(-2112.907 -1853.605)" fill="#627d6c"/>
        <path id="Path_3920" data-name="Path 3920" d="M2268.561,2086.368c-.168-3.058-2.4-8.356-5.144-7-2.995,1.483,1.577,6.96,4.906,7.258Z" transform="translate(-2061.154 -1894.169)" fill="#627d6c"/>
        <path id="Path_3921" data-name="Path 3921" d="M2213.35,2136.063c-.581-3.123-3.713-8.477-6.55-7.009-3.1,1.6,2.629,7.071,6.322,7.282Z" transform="translate(-2009.653 -1939.404)" fill="#627d6c"/>
        <path id="Path_3922" data-name="Path 3922" d="M2155.791,2193.035c-.788-3.2-4.489-8.789-7.538-7.434-3.327,1.478,3.23,7.31,7.3,7.7Z" transform="translate(-1956.293 -1990.957)" fill="#627d6c"/>
        <path id="Path_3923" data-name="Path 3923" d="M2114.664,2259.249c-.788-3.2-4.488-8.788-7.537-7.433-3.326,1.478,3.231,7.31,7.3,7.7Z" transform="translate(-1918.825 -2051.281)" fill="#627d6c"/>
        <path id="Path_3924" data-name="Path 3924" d="M2084.123,2328.364c-.695-2.856-3.955-7.8-6.64-6.526-2.929,1.391,2.847,6.5,6.43,6.77Z" transform="translate(-1891.918 -2115.075)" fill="#627d6c"/>
        <path id="Path_3925" data-name="Path 3925" d="M2636.649,1974.874a148.722,148.722,0,0,1,30.055-41.436l.164.17a148.473,148.473,0,0,0-30.006,41.37Z" transform="translate(-2402.065 -1761.419)" fill="#627d6c"/>
        <path id="Path_3926" data-name="Path 3926" d="M2971.172,1882.778a8.526,8.526,0,0,1,1.959-4.161c1.123-1.073,3.166-1.342,4.143-.134,1.038,1.285.16,3.364-1.3,4.131a8.137,8.137,0,0,1-4.858.384Z" transform="translate(-2706.773 -1710.629)" fill="#627d6c"/>
        <path id="Path_3927" data-name="Path 3927" d="M2921.5,1982.8c2.648-.913,7.907-.853,7.7,1.942-.223,3.049-6.441,1.067-7.842-1.65Z" transform="translate(-2661.449 -1805.913)" fill="#627d6c"/>
        <path id="Path_3928" data-name="Path 3928" d="M2875.632,2034.215c2.973-.739,8.693-.168,8.2,2.856-.536,3.3-7.116.542-8.381-2.551Z" transform="translate(-2619.622 -1852.965)" fill="#627d6c"/>
        <path id="Path_3929" data-name="Path 3929" d="M2833.22,2086.8c3.154-.365,9.193,1.052,8.626,4.2-.619,3.43-7.533-.431-8.821-3.9Z" transform="translate(-2580.97 -1901.084)" fill="#627d6c"/>
        <path id="Path_3930" data-name="Path 3930" d="M2789.01,2150.274c3.289-.189,9.721,1.7,9.323,5.015-.432,3.614-7.937-.936-9.509-4.709Z" transform="translate(-2540.702 -1958.951)" fill="#627d6c"/>
        <path id="Path_3931" data-name="Path 3931" d="M2744.476,2213.512c3.29-.19,9.72,1.7,9.324,5.014-.433,3.614-7.937-.935-9.51-4.709Z" transform="translate(-2500.13 -2016.562)" fill="#627d6c"/>
        <path id="Path_3932" data-name="Path 3932" d="M2706.132,2274.6c2.934-.177,8.619,1.483,8.191,4.423-.466,3.209-7.048-.807-8.363-4.151Z" transform="translate(-2465.21 -2072.22)" fill="#627d6c"/>
        <path id="Path_3933" data-name="Path 3933" d="M2870.068,1917.715c.092-2.8-1.514-7.808-4.125-6.79-2.848,1.111.877,6.469,3.886,7.009Z" transform="translate(-2610.032 -1740.787)" fill="#627d6c"/>
        <path id="Path_3934" data-name="Path 3934" d="M2814.235,1962.532c-.169-3.058-2.4-8.357-5.145-7-2.994,1.483,1.578,6.961,4.906,7.258Z" transform="translate(-2558.278 -1781.351)" fill="#627d6c"/>
        <path id="Path_3935" data-name="Path 3935" d="M2759.024,2012.227c-.58-3.122-3.712-8.476-6.551-7.009-3.1,1.6,2.631,7.072,6.323,7.282Z" transform="translate(-2506.777 -1826.586)" fill="#627d6c"/>
        <path id="Path_3936" data-name="Path 3936" d="M2701.463,2069.2c-.788-3.2-4.488-8.789-7.537-7.434-3.327,1.478,3.231,7.31,7.3,7.7Z" transform="translate(-2453.417 -1878.139)" fill="#627d6c"/>
        <path id="Path_3937" data-name="Path 3937" d="M2660.339,2135.414c-.788-3.2-4.489-8.789-7.538-7.434-3.327,1.478,3.23,7.31,7.3,7.7Z" transform="translate(-2415.951 -1938.463)" fill="#627d6c"/>
        <path id="Path_3938" data-name="Path 3938" d="M2629.8,2204.527c-.7-2.856-3.955-7.8-6.64-6.525-2.929,1.39,2.847,6.5,6.43,6.77Z" transform="translate(-2389.044 -2002.257)" fill="#627d6c"/>
        <path id="Path_3939" data-name="Path 3939" d="M307.046,2233.356a59.254,59.254,0,0,1-14.49-8.77l.15-.172a59.018,59.018,0,0,0,14.423,8.73Z" transform="translate(-266.527 -2026.507)" fill="#fff"/>
        <rect id="Rectangle_392" data-name="Rectangle 392" width="0.228" height="29.125" transform="matrix(0.818, -0.575, 0.575, 0.818, 30.59, 171.246)" fill="#fff"/>
        <path id="Path_3940" data-name="Path 3940" d="M557.238,2039.619s-30.338-17.476-35.019-45.047L543.7,2006.1a72.08,72.08,0,0,1,4.324-21.6s24.884,24.743,23.084,48.267-13.866,6.858-13.866,6.858" transform="translate(-475.757 -1807.933)" fill="#627d6c"/>
        <path id="Path_3941" data-name="Path 3941" d="M333.121,2163.19s-39.907-40.232-48.757-44.155,31.738.791,43.766,25.45c13.516,27.711,4.991,18.7,4.991,18.7" transform="translate(-257.925 -1929.386)" fill="#77a388"/>
        <path id="Path_3942" data-name="Path 3942" d="M532.045,2142.483l-1.311-4.34,9.849,9.95Z" transform="translate(-483.515 -1947.912)" fill="#3d5747"/>
        <path id="Path_3943" data-name="Path 3943" d="M376.065,2321.593s-21.569-19.9-33.538-27.234-22.29-8.191-22.29-8.191,4.244,14.344,17.243,21,38.585,14.428,38.585,14.428" transform="translate(-291.745 -2082.766)" fill="#77a388"/>
        <path id="Path_3944" data-name="Path 3944" d="M227.535,2164.96a3.67,3.67,0,1,1-4.766-2.056,3.671,3.671,0,0,1,4.766,2.056" transform="translate(-200.839 -1970.232)" fill="#fff"/>
        <path id="Path_3945" data-name="Path 3945" d="M304.984,1880.6a3.133,3.133,0,1,1-4.068-1.754,3.133,3.133,0,0,1,4.068,1.754" transform="translate(-272.343 -1711.486)" fill="#fff"/>
        <path id="Path_3946" data-name="Path 3946" d="M796.234,2432.355l8.845,14.257-3.32-1.823Z" transform="translate(-725.392 -2215.947)" fill="#3d5747"/>
        <path id="Path_3947" data-name="Path 3947" d="M822.707,2369.507a60.282,60.282,0,0,1-12.1-16.623l.213-.1a60.053,60.053,0,0,0,12.049,16.558Z" transform="translate(-738.49 -2143.451)" fill="#3d5747"/>
        <path id="Path_3948" data-name="Path 3948" d="M966.866,2286.041l-.236.007a58.586,58.586,0,0,0-4.121-20.132l.22-.087a58.827,58.827,0,0,1,4.138,20.213" transform="translate(-876.873 -2064.236)" fill="#3d5747"/>
        <path id="Path_3949" data-name="Path 3949" d="M482.967,2330.472a148.724,148.724,0,0,1-35.447-36.928l.2-.132a148.494,148.494,0,0,0,35.391,36.87Z" transform="translate(-407.704 -2089.365)" fill="#627d6c"/>
        <path id="Path_3950" data-name="Path 3950" d="M404.462,2225.964a8.526,8.526,0,0,1-3.747-2.666c-.857-1.3-.759-3.354.6-4.1,1.448-.794,3.339.439,3.834,2.015a8.137,8.137,0,0,1-.483,4.848Z" transform="translate(-364.56 -2021.528)" fill="#627d6c"/>
        <path id="Path_3951" data-name="Path 3951" d="M491.275,2280.56c-.428-2.769.564-7.933,3.278-7.236,2.961.76-.093,6.527-3.015,7.425Z" transform="translate(-447.479 -2071.007)" fill="#627d6c"/>
        <path id="Path_3952" data-name="Path 3952" d="M532.252,2330.012c-.2-3.056,1.377-8.584,4.266-7.565,3.151,1.113-.729,7.1-4,7.8Z" transform="translate(-484.881 -2115.705)" fill="#627d6c"/>
        <path id="Path_3953" data-name="Path 3953" d="M574.314,2378.461c.2-3.17,2.667-8.861,5.66-7.746,3.266,1.217-1.76,7.337-5.4,7.99Z" transform="translate(-523.217 -2159.661)" fill="#627d6c"/>
        <path id="Path_3954" data-name="Path 3954" d="M628.488,2428.075c.4-3.271,3.4-9.265,6.589-8.286,3.48,1.067-2.328,7.645-6.321,8.523Z" transform="translate(-572.571 -2204.401)" fill="#627d6c"/>
        <path id="Path_3955" data-name="Path 3955" d="M682.822,2483.122c.4-3.272,3.4-9.265,6.589-8.287,3.48,1.067-2.328,7.645-6.321,8.523Z" transform="translate(-622.071 -2254.551)" fill="#627d6c"/>
        <path id="Path_3956" data-name="Path 3956" d="M736.119,2542.121c.346-2.919,2.988-8.22,5.806-7.277,3.075,1.028-2.045,6.793-5.57,7.494Z" transform="translate(-670.626 -2309.217)" fill="#627d6c"/>
        <path id="Path_3957" data-name="Path 3957" d="M416.337,2353.613c-2.74-.588-7.952.1-7.414,2.853.588,3,6.522.285,7.587-2.581Z" transform="translate(-372.506 -2144.034)" fill="#627d6c"/>
        <path id="Path_3958" data-name="Path 3958" d="M450.814,2408.525c-3.04-.376-8.65.879-7.8,3.821.929,3.21,7.13-.317,8.013-3.541Z" transform="translate(-403.521 -2194.178)" fill="#627d6c"/>
        <path id="Path_3959" data-name="Path 3959" d="M489.926,2459.13c-3.175.017-9,2.151-8.059,5.2,1.026,3.331,7.426-1.333,8.288-4.93Z" transform="translate(-438.902 -2240.339)" fill="#627d6c"/>
        <path id="Path_3960" data-name="Path 3960" d="M535.736,2516.378c-3.288.207-9.445,2.858-8.653,6.1.864,3.536,7.767-1.883,8.874-5.819Z" transform="translate(-480.125 -2292.495)" fill="#627d6c"/>
        <path id="Path_3961" data-name="Path 3961" d="M593.6,2568.6c-3.288.208-9.445,2.858-8.653,6.1.864,3.536,7.767-1.882,8.874-5.818Z" transform="translate(-532.845 -2340.069)" fill="#627d6c"/>
        <path id="Path_3962" data-name="Path 3962" d="M655.929,2619.417c-2.934.177-8.379,2.509-7.6,5.376.849,3.129,6.9-1.649,7.8-5.127Z" transform="translate(-590.578 -2386.365)" fill="#627d6c"/>
        <path id="Path_3963" data-name="Path 3963" d="M457.9,1771.484a148.725,148.725,0,0,1-35.447-36.928l.2-.132a148.5,148.5,0,0,0,35.391,36.87Z" transform="translate(-384.866 -1580.112)" fill="#627d6c"/>
        <path id="Path_3964" data-name="Path 3964" d="M379.394,1666.977a8.526,8.526,0,0,1-3.747-2.666c-.857-1.3-.759-3.354.6-4.1,1.448-.794,3.339.439,3.834,2.014a8.139,8.139,0,0,1-.484,4.849Z" transform="translate(-341.722 -1512.275)" fill="#627d6c"/>
        <path id="Path_3965" data-name="Path 3965" d="M466.208,1721.571c-.428-2.769.564-7.933,3.278-7.236,2.961.76-.093,6.528-3.015,7.425Z" transform="translate(-424.642 -1561.751)" fill="#627d6c"/>
        <path id="Path_3966" data-name="Path 3966" d="M507.183,1771.026c-.2-3.057,1.378-8.585,4.266-7.565,3.151,1.113-.729,7.1-4,7.8Z" transform="translate(-462.044 -1606.451)" fill="#627d6c"/>
        <path id="Path_3967" data-name="Path 3967" d="M549.246,1819.471c.2-3.169,2.666-8.861,5.66-7.745,3.266,1.217-1.76,7.337-5.4,7.99Z" transform="translate(-500.379 -1650.406)" fill="#627d6c"/>
        <path id="Path_3968" data-name="Path 3968" d="M603.42,1869.088c.4-3.271,3.4-9.264,6.589-8.287,3.48,1.067-2.328,7.645-6.321,8.523Z" transform="translate(-549.733 -1695.147)" fill="#627d6c"/>
        <path id="Path_3969" data-name="Path 3969" d="M657.754,1924.133c.4-3.271,3.4-9.264,6.589-8.286,3.48,1.067-2.328,7.645-6.321,8.523Z" transform="translate(-599.233 -1745.296)" fill="#627d6c"/>
        <path id="Path_3970" data-name="Path 3970" d="M711.051,1983.134c.346-2.919,2.988-8.219,5.807-7.276,3.075,1.028-2.045,6.793-5.569,7.494Z" transform="translate(-647.789 -1799.964)" fill="#627d6c"/>
        <path id="Path_3971" data-name="Path 3971" d="M391.269,1794.625c-2.74-.587-7.952.1-7.414,2.854.588,3,6.522.285,7.587-2.581Z" transform="translate(-349.668 -1634.78)" fill="#627d6c"/>
        <path id="Path_3972" data-name="Path 3972" d="M425.746,1849.539c-3.04-.376-8.65.879-7.8,3.822.929,3.21,7.13-.318,8.013-3.541Z" transform="translate(-380.683 -1684.925)" fill="#627d6c"/>
        <path id="Path_3973" data-name="Path 3973" d="M464.858,1900.142c-3.176.017-9,2.15-8.059,5.2,1.026,3.331,7.426-1.334,8.288-4.93Z" transform="translate(-416.064 -1731.085)" fill="#627d6c"/>
        <path id="Path_3974" data-name="Path 3974" d="M510.668,1957.391c-3.288.208-9.445,2.859-8.653,6.1.864,3.535,7.767-1.883,8.874-5.819Z" transform="translate(-457.287 -1783.24)" fill="#627d6c"/>
        <path id="Path_3975" data-name="Path 3975" d="M568.537,2009.61c-3.288.208-9.445,2.858-8.653,6.1.864,3.536,7.767-1.883,8.874-5.818Z" transform="translate(-510.007 -1830.814)" fill="#627d6c"/>
        <path id="Path_3976" data-name="Path 3976" d="M630.861,2060.43c-2.934.177-8.379,2.509-7.6,5.376.849,3.129,6.9-1.649,7.8-5.128Z" transform="translate(-567.74 -1877.112)" fill="#627d6c"/>
        <path id="Path_3977" data-name="Path 3977" d="M870.033,435.111H745.8a10.683,10.683,0,0,0-10.683,10.683V627.067A10.683,10.683,0,0,0,745.8,637.75H870.033a10.683,10.683,0,0,0,10.683-10.683V445.794a10.683,10.683,0,0,0-10.683-10.683" transform="translate(-669.71 -396.399)" fill="#404559"/>
        <rect id="Rectangle_393" data-name="Rectangle 393" width="125.419" height="183.283" transform="translate(75.545 48.39)" fill="#fff"/>
        <path id="Path_3978" data-name="Path 3978" d="M1283.4,706.717a13.613,13.613,0,0,0-13.57-13.3c-.219,0-.44,0-.662.014-4.757.209-8.307,3.65-9.977,5.646-1.643-2.022-5.146-5.519-9.9-5.8-.3-.018-.6-.027-.893-.027h0a13.612,13.612,0,0,0-13.518,13.093c-.447,7.061,4.061,13.233,7.49,17.261a79.851,79.851,0,0,0,15.927,13.744l.631.4.636-.388a79.651,79.651,0,0,0,16.113-13.493c3.484-3.974,8.074-10.074,7.723-17.142" transform="translate(-1124.986 -631.566)" fill="#fb9096"/>
        <path id="Path_3979" data-name="Path 3979" d="M1135.092,711.218h-.016a.489.489,0,0,1-.472-.452l-2.64-34.758-3.416,27.752a.49.49,0,0,1-.973-.016l-1.743-19.353-2.114,8.681a.489.489,0,0,1-.475.374H1112.7a.489.489,0,0,1-.487-.445l-1.116-12.27-3.937,28.961a.49.49,0,0,1-.967.018l-4.275-24.563-1.39,6.8a.489.489,0,0,1-.479.391h-13.857a.489.489,0,1,1,0-.979h13.458l1.828-8.947a.489.489,0,0,1,.962.014l4.178,24,4.094-30.109a.489.489,0,0,1,.484-.423h.011a.49.49,0,0,1,.476.445l1.466,16.124h9.712l2.721-11.174a.489.489,0,0,1,.963.072l1.6,17.719L1131.594,671a.489.489,0,0,1,.974.023l2.671,35.168,1.98-14.011a.49.49,0,0,1,.485-.421h10.329l2.453-9.375a.489.489,0,0,1,.953.026l2.854,13.994,2.066-3.6a.489.489,0,0,1,.424-.246h20.686a.489.489,0,0,1,0,.979h-20.4l-2.57,4.474a.489.489,0,0,1-.9-.146l-2.693-13.2-2.016,7.705a.489.489,0,0,1-.473.365h-10.281l-2.552,18.056a.489.489,0,0,1-.484.421" transform="translate(-989.105 -610.913)" fill="#404559"/>
        <path id="Path_3980" data-name="Path 3980" d="M1312.232,1381.008h0l-82.14-.1a.489.489,0,0,1,0-.979h0l82.14.1a.489.489,0,0,1,0,.979" transform="translate(-1120.205 -1257.156)" fill="#404559"/>
        <path id="Path_3981" data-name="Path 3981" d="M1304.148,1446.467h0l-74.055-.1a.489.489,0,0,1,0-.979h0l74.055.1a.489.489,0,0,1,0,.979" transform="translate(-1120.205 -1316.791)" fill="#404559"/>
        <path id="Path_3982" data-name="Path 3982" d="M1280.65,1511.932h0l-50.556-.1a.489.489,0,0,1,0-.979h0l50.556.1a.489.489,0,0,1,0,.979" transform="translate(-1120.206 -1376.431)" fill="#404559"/>
        <path id="Path_3983" data-name="Path 3983" d="M1312.232,1668.812h0l-82.14-.1a.489.489,0,0,1,0-.979h0l82.14.1a.489.489,0,0,1,0,.979" transform="translate(-1120.205 -1519.354)" fill="#404559"/>
        <path id="Path_3984" data-name="Path 3984" d="M1282.266,1734.271h0l-52.173-.1a.489.489,0,0,1,0-.979h0l52.173.1a.489.489,0,0,1,0,.979" transform="translate(-1120.206 -1578.989)" fill="#404559"/>
        <path id="Path_3985" data-name="Path 3985" d="M1299.3,1799.736h0l-69.2-.1a.489.489,0,0,1,0-.979h0l69.2.1a.489.489,0,0,1,0,.979" transform="translate(-1120.205 -1638.629)" fill="#404559"/>
        <path id="Path_3986" data-name="Path 3986" d="M1293.8,1980.317h0l-63.707-.1a.489.489,0,0,1,0-.979h0l63.707.1a.489.489,0,0,1,0,.978" transform="translate(-1120.204 -1803.144)" fill="#404559"/>
        <path id="Path_3987" data-name="Path 3987" d="M1304.148,2045.777h0l-74.055-.1a.49.49,0,0,1,0-.979h0l74.055.1a.489.489,0,0,1,0,.979" transform="translate(-1120.205 -1862.78)" fill="#404559"/>
        <path id="Path_3988" data-name="Path 3988" d="M1281.943,2111.241h0l-51.849-.1a.49.49,0,0,1,0-.979h0l51.849.1a.49.49,0,0,1,0,.979" transform="translate(-1120.206 -1922.42)" fill="#404559"/>
        <path id="Path_3989" data-name="Path 3989" d="M1305.872,2268.121h0l-75.78-.1a.489.489,0,0,1,0-.979h0l75.78.1a.489.489,0,0,1,0,.978" transform="translate(-1120.204 -2065.341)" fill="#404559"/>
        <path id="Path_3990" data-name="Path 3990" d="M1281.943,2333.579h0l-51.849-.1a.489.489,0,0,1,0-.979h0l51.849.1a.489.489,0,0,1,0,.978" transform="translate(-1120.206 -2124.977)" fill="#404559"/>
        <path id="Path_3991" data-name="Path 3991" d="M1299.728,2399.044h0l-69.635-.1a.489.489,0,0,1,0-.979h0l69.636.1a.489.489,0,0,1,0,.979" transform="translate(-1120.205 -2184.617)" fill="#404559"/>
        <path id="Path_3992" data-name="Path 3992" d="M972.933,1369.079a7.739,7.739,0,1,1-7.739-7.739,7.739,7.739,0,0,1,7.739,7.739" transform="translate(-872.271 -1240.22)" fill="#e8eef2"/>
        <path id="Path_3993" data-name="Path 3993" d="M978.213,1364.162h0a.49.49,0,0,1-.482-.424,48.043,48.043,0,0,0-6.106-17.676.489.489,0,1,1,.844-.495,49.1,49.1,0,0,1,5.764,15.232,51.447,51.447,0,0,1,6.072-15.659.489.489,0,1,1,.842.5,50.4,50.4,0,0,0-6.448,18.1.489.489,0,0,1-.484.417" transform="translate(-885.115 -1225.245)" fill="#fb9096"/>
        <path id="Path_3994" data-name="Path 3994" d="M972.933,1659.985a7.739,7.739,0,1,1-7.739-7.739,7.739,7.739,0,0,1,7.739,7.739" transform="translate(-872.271 -1505.245)" fill="#e8eef2"/>
        <path id="Path_3995" data-name="Path 3995" d="M962.213,1652.375a.489.489,0,0,1-.435-.266,155.7,155.7,0,0,0-10.01-16.811.489.489,0,1,1,.808-.552,156.711,156.711,0,0,1,9.218,15.274,87.237,87.237,0,0,1,2.447-16.722.489.489,0,1,1,.95.235A86.24,86.24,0,0,0,962.7,1651.9a.489.489,0,0,1-.381.464.475.475,0,0,1-.109.012" transform="translate(-867.011 -1487.642)" fill="#fb9096"/>
        <path id="Path_3996" data-name="Path 3996" d="M972.933,1968.386a7.739,7.739,0,1,1-7.739-7.738,7.739,7.739,0,0,1,7.739,7.738" transform="translate(-872.271 -1786.208)" fill="#e8eef2"/>
        <path id="Path_3997" data-name="Path 3997" d="M977.424,1967.023a.489.489,0,0,1-.467-.345l-5.939-19.155a.489.489,0,0,1,.935-.29l5.427,17.5c1.413-5.422,3.06-10.834,4.905-16.113a.489.489,0,1,1,.924.323c-2.026,5.8-3.812,11.752-5.31,17.706a.49.49,0,0,1-.461.37h-.013" transform="translate(-884.606 -1773.673)" fill="#fb9096"/>
        <path id="Path_3998" data-name="Path 3998" d="M972.933,2259.294a7.739,7.739,0,1,1-7.739-7.738,7.739,7.739,0,0,1,7.739,7.738" transform="translate(-872.271 -2051.234)" fill="#e8eef2"/>
        <path id="Path_3999" data-name="Path 3999" d="M965.326,2275.158a.489.489,0,0,1-.471-.357,55.833,55.833,0,0,0-8.2-17.223.489.489,0,0,1,.8-.566,56.814,56.814,0,0,1,7.772,15.6,80.658,80.658,0,0,1,4.977-15.841.489.489,0,1,1,.9.388,79.658,79.658,0,0,0-5.289,17.6.488.488,0,0,1-.458.4h-.024" transform="translate(-871.455 -2055.715)" fill="#fb9096"/>
        <rect id="Rectangle_394" data-name="Rectangle 394" width="49.605" height="17.673" transform="translate(117.72 34.294)" fill="#5a789c"/>
        <path id="Path_4000" data-name="Path 4000" d="M1536.538,289a7.381,7.381,0,1,1-7.38-7.381,7.38,7.38,0,0,1,7.38,7.381" transform="translate(-1386.384 -256.56)" fill="#5a789c"/>
        <path id="Path_4001" data-name="Path 4001" d="M2632.888,1045.646a23.933,23.933,0,0,1-7.084,9.346c-10.686,8.422-26.734,4.484-38.62,1.172-4.012-1.118-7.922-2.584-11.923-3.717-1.348-.382-2.484-.637-3.492-.977a7.833,7.833,0,0,1-4.658-3.938c-2.257-3.812-3.544-10.506-1.245-14.547a8.995,8.995,0,0,1,6.749-4.438c-1.551-1.82-1.495-4.617-.49-6.8a17.458,17.458,0,0,1,5.261-6.106c1.245-.966,2.408-1.152,3.4-2.6,1.661-2.431,1.948-5.759,2-8.621.019-.824-.985-12.738-1.6-12.608,0,0,22.617-4.751,27.157.088,1.963,2.095,2.488,5.488,4.178,7.487a6.164,6.164,0,0,0,2.2,1.557c1.99.931,4.337,1.443,5.578,3.954a9.577,9.577,0,0,1-.313,8.91,23.924,23.924,0,0,1,12.9,31.834" transform="translate(-2336.477 -901.672)" fill="#0b0e1c"/>
        <g id="Group_628" data-name="Group 628" transform="translate(278.25 99.275)" opacity="0.21">
          <g id="Group_627" data-name="Group 627">
            <g id="Group_626" data-name="Group 626" clip-path="url(#clip-path-3)">
              <path id="Path_4002" data-name="Path 4002" d="M3145.6,1160.522a10.644,10.644,0,0,1-1.884-4.213c-.6-2.8-.4-5.7-.77-8.548a21.948,21.948,0,0,0-14.826-17.795,11.154,11.154,0,0,0,2.084-8.449c-.291-1.771-1.985-3.824-2.767-5.693,1.99.931,4.337,1.442,5.579,3.953a9.581,9.581,0,0,1-.313,8.911,23.925,23.925,0,0,1,12.9,31.834" transform="translate(-3127.437 -1115.824)" fill="#e1efed"/>
            </g>
          </g>
        </g>
        <path id="Path_4003" data-name="Path 4003" d="M1820.97,1593.39c.027.189.063.38.1.575.622,3,2.8,6.915,8.407,10.317,6.031,3.658,10.66,5.089,13.777,8.122,4.178,4.065,9.478,17.729,9.478,17.729l12.709-10.685s-11.456-13.164-12.51-14.75-9.2-12.166-13.242-13.8-2.461.749-1.88,1.964,2.576,3.544,1.791,4.077-10.5-5.538-11.859-6.224-6.556-2.9-6.852.691a8.708,8.708,0,0,0,.077,1.982" transform="translate(-1658.865 -1448)" fill="#ffb18a"/>
        <g id="Group_631" data-name="Group 631" transform="translate(165.879 141.912)" opacity="0.56">
          <g id="Group_630" data-name="Group 630">
            <g id="Group_629" data-name="Group 629" clip-path="url(#clip-path-4)">
              <path id="Path_4004" data-name="Path 4004" d="M1874.053,1602.823a.148.148,0,0,0,.126-.072.151.151,0,0,0-.051-.2,41.143,41.143,0,0,1-9.447-7.462.145.145,0,0,0-.207,0,.149.149,0,0,0,0,.21,41.867,41.867,0,0,0,9.5,7.507.142.142,0,0,0,.076.021" transform="translate(-1864.43 -1595.042)" fill="#5b3428"/>
            </g>
          </g>
        </g>
        <g id="Group_634" data-name="Group 634" transform="translate(162.622 141.912)" opacity="0.56">
          <g id="Group_633" data-name="Group 633">
            <g id="Group_632" data-name="Group 632" clip-path="url(#clip-path-5)">
              <path id="Path_4005" data-name="Path 4005" d="M1838.629,1604.919a.147.147,0,0,0,.131-.081.149.149,0,0,0-.064-.2c-4.665-2.415-7.043-4.895-10.61-9.539a.146.146,0,0,0-.207-.026.149.149,0,0,0-.026.208c3.594,4.681,5.994,7.181,10.708,9.621a.147.147,0,0,0,.067.016" transform="translate(-1827.823 -1595.042)" fill="#5b3428"/>
            </g>
          </g>
        </g>
        <g id="Group_637" data-name="Group 637" transform="translate(162.106 145.39)" opacity="0.56">
          <g id="Group_636" data-name="Group 636">
            <g id="Group_635" data-name="Group 635" clip-path="url(#clip-path-6)">
              <path id="Path_4006" data-name="Path 4006" d="M1822.019,1634.129c.026.188.062.38.1.575a31.363,31.363,0,0,0,9.368,7.9.14.14,0,0,0,.074.021.146.146,0,0,0,.128-.075.152.152,0,0,0-.053-.2,31.631,31.631,0,0,1-9.62-8.218" transform="translate(-1822.019 -1634.129)" fill="#5b3428"/>
            </g>
          </g>
        </g>
        <g id="Group_640" data-name="Group 640" transform="translate(181.63 150.134)" opacity="0.56">
          <g id="Group_639" data-name="Group 639">
            <g id="Group_638" data-name="Group 638" clip-path="url(#clip-path-7)">
              <path id="Path_4007" data-name="Path 4007" d="M2045.266,1694.482a.146.146,0,0,0,.128-.077.148.148,0,0,0-.057-.2,7.182,7.182,0,0,1-3.575-6.582.148.148,0,0,0-.137-.157.144.144,0,0,0-.155.139,7.485,7.485,0,0,0,3.725,6.859.143.143,0,0,0,.071.019" transform="translate(-2041.458 -1687.464)" fill="#5b3428"/>
            </g>
          </g>
        </g>
        <g id="Group_643" data-name="Group 643" transform="translate(187.412 163.249)" opacity="0.56">
          <g id="Group_642" data-name="Group 642">
            <g id="Group_641" data-name="Group 641" clip-path="url(#clip-path-8)">
              <path id="Path_4008" data-name="Path 4008" d="M2115.383,1834.862l-8.933,5.259,1.735,2.707Z" transform="translate(-2106.45 -1834.862)" fill="#5b3428"/>
            </g>
          </g>
        </g>
        <path id="Path_4009" data-name="Path 4009" d="M2202.191,1533.035a186.125,186.125,0,0,0-20.5,17.64l-5.859-8-10.668-14.561-.732-1-.189-.259,14.832-10.584a141.8,141.8,0,0,1-10.467-16.316l0,.009-4.5,19.842-1.6,7.049.18.288c.439.707,1.962,3.154,7.233,11.62q.955,1.532,1.829,3.182.209.394.413.8h0l.086.17c.982,1.939,1.894,3.994,2.734,6.14q.2.51.395,1.025.1.256.193.516s0,0,0,0a90.326,90.326,0,0,1,3.74,13.811c.48,2.449.9,4.982,1.268,7.574h-74.52q.273-3.978.566-7.574c1.947-23.97,4.412-35.348,4.412-35.348l-1.306-11.9s-.03.25-.1.7c-.035.22-.081.488-.139.794-.021.116-.046.236-.07.361-.016.084-.034.17-.053.258h0c-.027.132-.055.27-.088.411-.022.1-.043.193-.065.292s-.046.2-.071.3h0c-.073.308-.155.631-.246.968-.03.113-.061.226-.094.341s-.065.232-.1.349c-.1.354-.216.719-.338,1.09-.083.248-.169.5-.26.754s-.187.513-.288.771a24.382,24.382,0,0,1-1.913,3.909h0c-4.585,7.482-14.394,12.618-34.882-7.57-9.585-9.446-9.6-9.706-9.6-9.709a67.779,67.779,0,0,1,5.626-13.548c.037-.068.077-.134.115-.2,1.775-3.062,3.929-5.878,6.412-7.5a8.646,8.646,0,0,1,3.206-1.33,7.046,7.046,0,0,1,1.544-.105l12.74,16.209.78.992s.085-.289.246-.821c1.359-4.463,8.1-26.03,14.823-37,1.7-2.769,3.39-4.864,5-5.838a41.689,41.689,0,0,1,14.263-5.209q.41-.07.782-.127a28.843,28.843,0,0,1,2.926-.323l.021.068,6.438,20.588,18.292-21.151.06-.069s7.188-1.253,17.415,6.5c1.23.933,2.5,2,3.815,3.208,4.756,4.393,10,10.739,15.377,19.888,19.194,32.631,21.37,40.129,10.906,47.627" transform="translate(-1878.006 -1326.217)" fill="#e8eef2"/>
        <g id="Group_646" data-name="Group 646" transform="translate(227.888 173.944)" opacity="0.8">
          <g id="Group_645" data-name="Group 645">
            <g id="Group_644" data-name="Group 644" clip-path="url(#clip-path-9)">
              <path id="Path_4010" data-name="Path 4010" d="M2561.389,1983.368a30.862,30.862,0,0,0,3.725-10.6v-.931l-2.369-16.764s.136,16.728-1.356,28.3" transform="translate(-2561.389 -1955.072)" fill="#3e435b"/>
            </g>
          </g>
        </g>
        <g id="Group_649" data-name="Group 649" transform="translate(283.014 160.419)" opacity="0.8">
          <g id="Group_648" data-name="Group 648">
            <g id="Group_647" data-name="Group 647" clip-path="url(#clip-path-10)">
              <path id="Path_4011" data-name="Path 4011" d="M3180.99,1803.061l3.078,33.175,4.5-19.843Z" transform="translate(-3180.99 -1803.061)" fill="#3e435b"/>
            </g>
          </g>
        </g>
        <g id="Group_652" data-name="Group 652" transform="translate(278.919 216.53)" opacity="0.8">
          <g id="Group_651" data-name="Group 651">
            <g id="Group_650" data-name="Group 650" clip-path="url(#clip-path-11)">
              <path id="Path_4012" data-name="Path 4012" d="M3150.184,2433.726c-1.125.08-8.448.586-15.228.757,9.463.65,17.452,6.23,18.636,7.1a72.777,72.777,0,0,0-3.408-7.853" transform="translate(-3134.957 -2433.726)" fill="#3e435b"/>
            </g>
          </g>
        </g>
        <path id="Path_4013" data-name="Path 4013" d="M2702.969,2042.51l-36.334-1.1v-52.339l36.334,1.1Z" transform="translate(-2429.384 -1812.099)" fill="#5a789c"/>
        <path id="Path_4014" data-name="Path 4014" d="M2831.375,2218.307a3.07,3.07,0,0,0,.28.214s.012.024.038.069a21.964,21.964,0,0,0,4.129,5.1c.112.111.23.212.35.315a16.564,16.564,0,0,0,8.782,4.148c8.912,1.145,11.869.553,17.2.246,1.884-.107,6.728-.422,10.171-.652,2.146-.139,3.746-.246,3.746-.246l-9.44-13.062-1.813-2.505s-6.418.42-8.229-1.288a24.052,24.052,0,0,0-4.8-3.2l.053,4.948s-14.455-.791-15.358-1.645-3.061.107-3.017,1.434a3.415,3.415,0,0,0,.945,2.175c-.124-.069-2.593-1.419-3.8-.809-1.17.594-.856,3.4.763,4.76" transform="translate(-2578.131 -2011.046)" fill="#ffb18a"/>
        <g id="Group_655" data-name="Group 655" transform="translate(256.917 203.138)" opacity="0.56">
          <g id="Group_654" data-name="Group 654">
            <g id="Group_653" data-name="Group 653" clip-path="url(#clip-path-12)">
              <path id="Path_4015" data-name="Path 4015" d="M2900.417,2286.038a.148.148,0,0,0,.017-.3,85.986,85.986,0,0,1-12.578-2.537.146.146,0,0,0-.179.106.148.148,0,0,0,.1.181,86.12,86.12,0,0,0,12.617,2.545h.019" transform="translate(-2887.671 -2283.2)" fill="#5b3428"/>
            </g>
          </g>
        </g>
        <g id="Group_658" data-name="Group 658" transform="translate(253.244 207.176)" opacity="0.56">
          <g id="Group_657" data-name="Group 657">
            <g id="Group_656" data-name="Group 656" clip-path="url(#clip-path-13)">
              <path id="Path_4016" data-name="Path 4016" d="M2846.376,2328.672a3.312,3.312,0,0,0,.281.213s.012.024.038.069a52.2,52.2,0,0,0,15.206,2.925h.006a.15.15,0,0,0,.006-.3,52.1,52.1,0,0,1-15.356-2.985.146.146,0,0,0-.18.078" transform="translate(-2846.376 -2328.586)" fill="#5b3428"/>
            </g>
          </g>
        </g>
        <g id="Group_661" data-name="Group 661" transform="translate(257.69 212.565)" opacity="0.56">
          <g id="Group_660" data-name="Group 660">
            <g id="Group_659" data-name="Group 659" clip-path="url(#clip-path-14)">
              <path id="Path_4017" data-name="Path 4017" d="M2896.363,2389.244c.113.107.231.209.35.314a38.954,38.954,0,0,0,11.039,1.956h0a.149.149,0,0,0,.149-.144.152.152,0,0,0-.146-.152,37.818,37.818,0,0,1-11.214-2.042.146.146,0,0,0-.181.069" transform="translate(-2896.363 -2389.165)" fill="#5b3428"/>
            </g>
          </g>
        </g>
        <g id="Group_664" data-name="Group 664" transform="translate(286.734 201.015)" opacity="0.56">
          <g id="Group_663" data-name="Group 663">
            <g id="Group_662" data-name="Group 662" clip-path="url(#clip-path-15)">
              <path id="Path_4018" data-name="Path 4018" d="M3222.8,2259.347l7.46,15.686c2.146-.139,3.746-.247,3.746-.247l-9.44-13.061Z" transform="translate(-3222.8 -2259.347)" fill="#5b3428"/>
            </g>
          </g>
        </g>
        <path id="Path_4019" data-name="Path 4019" d="M2754.587,946.735l-19.155,22.519-5.767-21.874,1.7-.145a1.821,1.821,0,0,0,1.648-2.023l-.517-4.763-.249-1.752-.423-3-.276-1.95-.011-.076s-1.174.645-5.593-1.24c-2.891-1.229-4.632-5.385-5.454-10.845a48.43,48.43,0,0,1-.562-6.476c-.037-2.183-.03-4.45.095-6.732.585-10.887,11.289-11.406,11.825-11.429.027.351.053.714.091,1.072.26,2.843,14.853,12.746,14.853,12.746.094.408.139.653.139.653,3.009-1.889,5.22,1.423,5.22,5.079s-5.22,5.072-5.22,5.072c-.158,3.026,1.189,7.911,2.892,12.746l1.593,4.27a44.059,44.059,0,0,0,3.174,8.151" transform="translate(-2477.916 -817.144)" fill="#ffb18a"/>
        <path id="Path_4020" data-name="Path 4020" d="M2807.486,1728.876a.471.471,0,0,0,.456-.359,199.1,199.1,0,0,1,7.284-23.536.479.479,0,0,0-.251-.623.472.472,0,0,0-.616.254,199.937,199.937,0,0,0-7.329,23.672.476.476,0,0,0,.341.577.462.462,0,0,0,.115.015" transform="translate(-2557.274 -1552.688)" fill="#404559"/>
        <path id="Path_4021" data-name="Path 4021" d="M2847.286,1528.665a.467.467,0,0,0,.381-.2c6.675-9.286,17.866-21.242,29.261-26.95l.625-.313-.521-.468a20.3,20.3,0,0,1-2.692-2.979l9.038.841-.024-.545c-.017-.375-.419-9.2-1.618-11.315a.467.467,0,0,0-.642-.175.478.478,0,0,0-.174.649c.843,1.482,1.318,7.522,1.467,10.34l-9.7-.9.351.752a14.887,14.887,0,0,0,2.86,3.573c-11.335,5.9-22.375,17.72-29,26.934a.478.478,0,0,0,.1.664.461.461,0,0,0,.276.091" transform="translate(-2593.534 -1354.246)" fill="#404559"/>
        <path id="Path_4022" data-name="Path 4022" d="M2749.107,1500.408a.471.471,0,0,0,.47-.47c.056-5.428-1.463-13.734-4.389-18.793l4.109-2.09-.689-.451c-.789-.516-1.708-1.232-2.6-1.926-.793-.618-1.608-1.253-2.352-1.763.628-1.788,1.428-3.582,2.14-5.176a37.4,37.4,0,0,0,1.765-4.381.476.476,0,0,0-.322-.589.47.47,0,0,0-.583.324,36.6,36.6,0,0,1-1.719,4.255c-.766,1.715-1.634,3.66-2.291,5.6l-.119.351.308.2c.79.516,1.709,1.233,2.6,1.925.666.519,1.348,1.051,1.99,1.51l-3.577,1.819.274.442c2.9,4.676,4.57,13.193,4.513,18.726a.473.473,0,0,0,.466.48Z" transform="translate(-2498.528 -1334.43)" fill="#404559"/>
        <path id="Path_4023" data-name="Path 4023" d="M2788.452,2584.877l-.037,7.782-.036,7.574h-.94l.036-7.574.036-7.787a.474.474,0,0,1,.47-.473h0a.472.472,0,0,1,.467.478" transform="translate(-2539.44 -2354.464)" fill="#404559"/>
        <path id="Path_4024" data-name="Path 4024" d="M2397.307,2015.276a.47.47,0,0,0,.438-.3,8.851,8.851,0,0,0-3.793-10.586.468.468,0,0,0-.639.186.478.478,0,0,0,.183.646,7.974,7.974,0,0,1,3.373,9.41.477.477,0,0,0,.268.615.458.458,0,0,0,.169.033" transform="translate(-2180.326 -1826.002)" fill="#404559"/>
        <path id="Path_4025" data-name="Path 4025" d="M3386.788,2113.422a.462.462,0,0,0,.23-.061,11.556,11.556,0,0,1,10.839-.19.469.469,0,0,0,.634-.2.477.477,0,0,0-.2-.641,12.512,12.512,0,0,0-11.734.207.477.477,0,0,0-.179.647.467.467,0,0,0,.41.242" transform="translate(-3085.036 -1923.153)" fill="#404559"/>
        <path id="Path_4026" data-name="Path 4026" d="M2836.406,2674.306a1.968,1.968,0,1,0,1.968-1.989,1.978,1.978,0,0,0-1.968,1.989" transform="translate(-2584.049 -2434.559)" fill="#404559"/>
        <path id="Path_4027" data-name="Path 4027" d="M2697.191,1207.211a2.91,2.91,0,1,0,5.8.427c.117-1.62-2.352-7.841-2.352-7.841s-3.334,5.794-3.452,7.414" transform="translate(-2457.214 -1093.05)" fill="#fb9096"/>
        <path id="Path_4028" data-name="Path 4028" d="M2722.862,1181.84a1.473,1.473,0,0,0,.947,1.846,1.452,1.452,0,0,0,1.826-.958,1.474,1.474,0,0,0-.948-1.847,1.451,1.451,0,0,0-1.826.958" transform="translate(-2480.545 -1075.755)" fill="#628af9"/>
        <path id="Path_4029" data-name="Path 4029" d="M2701.417,907.1c.02.141.039.284.062.428a47.536,47.536,0,0,0,1.32,6.191c4.034,13.893,12.161,10.677,12.161,10.677l0,.039.285,3.59.514,6.484,16.924-.836-1.575-22c4.907-.923,4.917-11.665,1.335-11.988.163-2.233,1.833-1.9-2.582-8.5-7.37-11.01-31.978-9.433-28.446,15.911" transform="translate(-2460.757 -805.987)" fill="#ffb18a"/>
        <path id="Path_4030" data-name="Path 4030" d="M2909.382,714.43c-1.2,4.045-4.861,6.507-8.167,5.5a4.93,4.93,0,0,1-.8-.321c-2.774-1.374-4.107-5.121-3-8.823,1.2-4.045,4.861-6.506,8.167-5.5a5.577,5.577,0,0,1,3.148,2.542,8.331,8.331,0,0,1,.66,6.606" transform="translate(-2639.271 -642.329)" fill="#191f28"/>
        <g id="Group_667" data-name="Group 667" transform="translate(257.749 62.73)" opacity="0.21">
          <g id="Group_666" data-name="Group 666">
            <g id="Group_665" data-name="Group 665" clip-path="url(#clip-path-16)">
              <path id="Path_4031" data-name="Path 4031" d="M2908.721,707.825a8.324,8.324,0,0,0-6.481,2.828c-1.849,2.152-2.151,4.793-1.773,7.506a4.053,4.053,0,0,1-.057,1.45c-2.774-1.374-4.107-5.121-3-8.823,1.2-4.045,4.861-6.506,8.167-5.5a5.577,5.577,0,0,1,3.148,2.542" transform="translate(-2897.02 -705.059)" fill="#e1efed"/>
            </g>
          </g>
        </g>
        <path id="Path_4032" data-name="Path 4032" d="M2727.435,871.4c-1.9-1.775-3.427-2.553-5.982-1.916a4.849,4.849,0,0,0-1.087.408,3.416,3.416,0,0,0-.94.721,2.547,2.547,0,0,0-.668,2.183c-2.846-.549-5.533-2.763-7.84-4.515-2.445-1.858-5.216-4.091-6.477-7,0,0-9.119,5.018-10.613,8.724a6.934,6.934,0,0,1-.85-2.9c-.679-5.243.785-15.4,13.226-15.993a28.191,28.191,0,0,1,10.108,1.114,16.328,16.328,0,0,1,4,1.935,14.506,14.506,0,0,1,5.043,5.778,19.446,19.446,0,0,1,1.657,5.556,22.862,22.862,0,0,1,.426,5.907" transform="translate(-2453.259 -775.339)" fill="#191f28"/>
        <g id="Group_670" data-name="Group 670" transform="translate(239.583 75.72)" opacity="0.21">
          <g id="Group_669" data-name="Group 669">
            <g id="Group_668" data-name="Group 668" clip-path="url(#clip-path-17)">
              <path id="Path_4033" data-name="Path 4033" d="M2720.308,854.156a5.567,5.567,0,0,1-1.295,3.675c-1.6,1.849-4.531,2.75-6.882,2.932a12.309,12.309,0,0,1-3.932-.33,10.919,10.919,0,0,1-3.817-2.313c-.374-.29-2.966,1.273-3.369,1.5a18.736,18.736,0,0,0-3.159,2.274,38,38,0,0,0-4.877,5.2c-.68-5.243.785-15.4,13.225-15.993a28.193,28.193,0,0,1,10.108,1.114,16.322,16.322,0,0,1,4,1.935" transform="translate(-2692.84 -851.058)" fill="#e1efed"/>
            </g>
          </g>
        </g>
        <path id="Path_4034" data-name="Path 4034" d="M3020.494,1186.091a2.91,2.91,0,1,0,5.758-.851c-.232-1.608-3.973-7.142-3.973-7.142s-2.018,6.385-1.785,7.993" transform="translate(-2751.742 -1073.282)" fill="#fb9096"/>
        <path id="Path_4035" data-name="Path 4035" d="M3026.891,1159.841a1.455,1.455,0,1,0,1.578-1.334,1.465,1.465,0,0,0-1.578,1.334" transform="translate(-2757.582 -1055.429)" fill="#fb9096"/>
        <path id="Path_4036" data-name="Path 4036" d="M2830.957,1079.355l.038,0,6.872.2a.625.625,0,0,0,.036-1.25l-6.872-.2a.626.626,0,0,0-.073,1.248" transform="translate(-2578.572 -982.187)" fill="#15192d"/>
        <path id="Path_4037" data-name="Path 4037" d="M2702.8,1076.074l.037,0,6.292.2a.625.625,0,0,0,.039-1.25l-6.293-.2a.625.625,0,0,0-.075,1.248" transform="translate(-2461.815 -979.198)" fill="#15192d"/>
        <path id="Path_4038" data-name="Path 4038" d="M2850.459,1112.889c.062.81.565,1.431,1.126,1.387s.965-.736.9-1.546-.566-1.431-1.127-1.387-.966.736-.9,1.546" transform="translate(-2596.847 -1012.464)" fill="#15192d"/>
        <path id="Path_4039" data-name="Path 4039" d="M2735.593,1111.891c.062.81.566,1.431,1.127,1.388s.965-.736.9-1.546-.566-1.431-1.127-1.387-.965.736-.9,1.546" transform="translate(-2492.2 -1011.555)" fill="#15192d"/>
        <g id="Group_673" data-name="Group 673" transform="translate(247.514 98.591)" opacity="0.6">
          <g id="Group_672" data-name="Group 672">
            <g id="Group_671" data-name="Group 671" clip-path="url(#clip-path-18)">
              <path id="Path_4040" data-name="Path 4040" d="M2784.706,1115.245a.2.2,0,0,0,.169-.065.211.211,0,0,0-.009-.295,1.694,1.694,0,0,0-1.4-.256c-.528.056-.859-.031-1-.257a1.1,1.1,0,0,1-.072-.628l.365-5.394a.216.216,0,0,0-.192-.222.207.207,0,0,0-.219.193l-.366,5.394a1.461,1.461,0,0,0,.132.874c.227.375.691.528,1.38.455.4-.042.838-.089,1.085.145a.2.2,0,0,0,.122.055" transform="translate(-2781.975 -1108.128)" fill="#893f3e"/>
            </g>
          </g>
        </g>
        <path id="Path_4041" data-name="Path 4041" d="M2776.877,1213.56a3.158,3.158,0,0,0,2.12,1.9,3.121,3.121,0,0,0,2.5-.444c.486-.331,1.574-1.329.84-1.936-.524-.433-1.722.518-2.339.648a6.528,6.528,0,0,1-3.118-.164" transform="translate(-2529.817 -1105.046)" fill="#fff"/>
        <g id="Group_676" data-name="Group 676" transform="translate(267.057 95.862)" opacity="0.6">
          <g id="Group_675" data-name="Group 675">
            <g id="Group_674" data-name="Group 674" clip-path="url(#clip-path-19)">
              <path id="Path_4042" data-name="Path 4042" d="M3001.826,1080.418a.207.207,0,0,0,.222-.181,2.783,2.783,0,0,1,1.777-2.216,2.736,2.736,0,0,1,2.76.595.2.2,0,0,0,.291-.008.21.21,0,0,0-.008-.295,3.156,3.156,0,0,0-3.18-.686,3.208,3.208,0,0,0-2.048,2.554.208.208,0,0,0,.177.234h.009" transform="translate(-3001.638 -1077.457)" fill="#893f3e"/>
            </g>
          </g>
        </g>
        <g id="Group_679" data-name="Group 679" transform="translate(253.908 114.361)" opacity="0.6">
          <g id="Group_678" data-name="Group 678">
            <g id="Group_677" data-name="Group 677" clip-path="url(#clip-path-20)">
              <path id="Path_4043" data-name="Path 4043" d="M2861.653,1285.376a22.485,22.485,0,0,1-7.22,7.675l-.159-.481-.423-3c.211-.065.415-.13.438-.134,2.332-.37,7.208-3.946,7.363-4.057" transform="translate(-2853.851 -1285.376)" fill="#893f3e"/>
            </g>
          </g>
        </g>
        <g id="Group_682" data-name="Group 682" transform="translate(255.006 101.075)" opacity="0.2">
          <g id="Group_681" data-name="Group 681">
            <g id="Group_680" data-name="Group 680" clip-path="url(#clip-path-21)">
              <path id="Path_4044" data-name="Path 4044" d="M2866.2,1139.128a3.346,3.346,0,1,0,3.63-3.069,3.372,3.372,0,0,0-3.63,3.069" transform="translate(-2866.186 -1136.046)" fill="#c55c56"/>
            </g>
          </g>
        </g>
        <g id="Group_685" data-name="Group 685" transform="translate(240.66 101.024)" opacity="0.2">
          <g id="Group_684" data-name="Group 684">
            <g id="Group_683" data-name="Group 683" clip-path="url(#clip-path-22)">
              <path id="Path_4045" data-name="Path 4045" d="M2704.946,1135.555c.02.141.039.284.062.428a47.611,47.611,0,0,0,1.32,6.191,3.388,3.388,0,0,0-.33-6.692,3.3,3.3,0,0,0-1.052.073" transform="translate(-2704.947 -1135.468)" fill="#c55c56"/>
            </g>
          </g>
        </g>
        <path id="Path_4046" data-name="Path 4046" d="M2716.894,1089.754l-.932.241-6.231,1.612a1.331,1.331,0,0,0-1.058-.6l-5.993-.224a1.311,1.311,0,0,0-.964.362,1.354,1.354,0,0,0-.427.945l0,.087a1.681,1.681,0,0,0-.957-.463,1.612,1.612,0,0,0-.6.049,1.748,1.748,0,0,0-.427.182.988.988,0,0,0-.086.055l.007-.179a1.352,1.352,0,0,0-1.292-1.406l-.592-.022-3.9-.146-1.125-.042a1.287,1.287,0,0,0-.541.091,1.362,1.362,0,0,0-.848,1.215l-.083,2.246a1.356,1.356,0,0,0,.358.973,1.326,1.326,0,0,0,.933.433l.156.006,1.453.054,1.872.07,2.128.08h.055a1.352,1.352,0,0,0,1.343-1.306l.058-1.63.038.037.031-.03a1.258,1.258,0,0,1,.431-.272,1.247,1.247,0,0,1,1.528.529l.042-.026-.061,1.659a1.361,1.361,0,0,0,.359.974,1.322,1.322,0,0,0,.934.432l4.22.157,1.772.067h.052a1.319,1.319,0,0,0,.911-.363,1.351,1.351,0,0,0,.428-.944l.029-.79.054-1.455a1.368,1.368,0,0,0-.068-.458l6.776-1.765.24-.062h0v-.381Zm-18.131,4.3a.968.968,0,0,1-1,.939h-.041l-2.417-.091-1.6-.06-1.474-.054-.08,0a.971.971,0,0,1-.928-1.011l.082-2.246a.974.974,0,0,1,.307-.678.938.938,0,0,1,.182-.134.97.97,0,0,1,.51-.125l1.145.042,3.929.146.542.021a.972.972,0,0,1,.928,1.011Zm10.743.592a.976.976,0,0,1-.308.678.952.952,0,0,1-.692.26l-1.6-.06-4.4-.164a.949.949,0,0,1-.671-.311.976.976,0,0,1-.257-.7l.082-2.246a.978.978,0,0,1,.306-.678.952.952,0,0,1,.656-.26h.037l5.992.224a.956.956,0,0,1,.672.311.972.972,0,0,1,.257.7l-.053,1.477Z" transform="translate(-2451.436 -992.792)" fill="#fff"/>
        <path id="Path_4047" data-name="Path 4047" d="M554.627,2714.918c0,1.221-1.483,2.21-3.314,2.21h-290.3a4.272,4.272,0,0,1-2.344-.647,1.93,1.93,0,0,1-.97-1.563c0-1.22,1.483-2.209,3.314-2.209h290.3a4.275,4.275,0,0,1,2.344.647,1.928,1.928,0,0,1,.97,1.562" transform="translate(-234.77 -2471.359)" fill="#404559"/>
      </g>
    </g>
  </g>
</svg>
