<svg id="consultbefore" xmlns="http://www.w3.org/2000/svg" xmlns:xlink="http://www.w3.org/1999/xlink" width="243.375" height="262.426" viewBox="0 0 243.375 262.426">
  <defs>
    <clipPath id="clip-path">
      <rect id="Rectangle_563" data-name="Rectangle 563" width="243.375" height="262.426" fill="none"/>
    </clipPath>
    <clipPath id="clip-path-3">
      <path id="Path_5286" data-name="Path 5286" d="M139.777,70.282v158.93a4.651,4.651,0,0,0,4.85,4.491l80.561-.281a4.1,4.1,0,0,0,4.434-4.21V70.282Z" transform="translate(-139.777 -70.282)" fill="none"/>
    </clipPath>
  </defs>
  <g id="Group_809" data-name="Group 809">
    <g id="Group_808" data-name="Group 808" opacity="0.29" clip-path="url(#clip-path)">
      <path id="Path_5274" data-name="Path 5274" d="M215.438,60.267c-18.184-29.635-44.107-45.035-73.59-49.351C112.853,6.6,80.3,13.368,60.141,28.068,49,36.686,34.571,56.967,26.6,82.058c-8.406,25.09-10.346,54.989-6.571,82.841,8.789,55.705,42.333,103.223,169.342,87.716,16.5-2.128,33.461-11.509,44.679-25.31,11.488-13.8,17.236-32.022,17.563-51.829.776-39.614-19.7-85.573-36.181-115.208" transform="translate(-8.265 -4.376)" fill="#d3e5f3"/>
      <path id="Path_5275" data-name="Path 5275" d="M55.361,279.669H7.254A7.262,7.262,0,0,1,0,272.416V249.854A7.262,7.262,0,0,1,7.254,242.6H55.361a7.262,7.262,0,0,1,7.254,7.254v22.562a7.262,7.262,0,0,1-7.254,7.254M7.254,243.35a6.511,6.511,0,0,0-6.5,6.5v22.562a6.511,6.511,0,0,0,6.5,6.5H55.361a6.511,6.511,0,0,0,6.5-6.5V249.854a6.511,6.511,0,0,0-6.5-6.5Z" transform="translate(0 -110.229)" fill="#9caee8"/>
    </g>
  </g>
  <text id="_24:7" data-name="24:7" transform="translate(5.253 154.94)" fill="#669ec2" font-size="17" font-family="Poppins-Bold, Poppins" font-weight="700"><tspan x="0" y="0">24:7</tspan></text>
  <g id="Group_811" data-name="Group 811">
    <g id="Group_810" data-name="Group 810" clip-path="url(#clip-path)">
      <path id="Path_5276" data-name="Path 5276" d="M109.943,322.174c12.934-21.44,107.622,11.672,104.717,19.218-14.03,36.434-33.868,38.9-56.4,49.9-15.036-1.4-34.639-4.925-47.579-17.515-.088-8.15-5.559-43.614-.741-51.6" transform="translate(-49.054 -143.15)" fill="#ffb18a"/>
      <path id="Path_5277" data-name="Path 5277" d="M252.556,179.35c14.109-10.768,57.567-32.016,59.083-19.162,1.35,11.456-35.586,33.049-46.053,36.2-10.293,3.1-29.566-4.416-13.029-17.037" transform="translate(-111.821 -70.963)" fill="#ffb18a"/>
      <path id="Path_5278" data-name="Path 5278" d="M130.594,315.33l-.032,38.005c-.038,6.857,5.941,12.394,13.354,12.367l73.464-.267c7.413-.027,13.453-5.607,13.49-12.464l.019-37.641Z" transform="translate(-59.323 -143.275)" fill="#02022b"/>
      <path id="Path_5279" data-name="Path 5279" d="M219.64,49.929H141.887c-7.413.063-11.316,6.3-11.319,13.161V228.818c0,6.858,6,12.365,13.415,12.3l73.458-.629c7.412-.064,13.513-5.674,13.517-12.532V62.23c0-6.858-3.906-12.365-11.318-12.3" transform="translate(-59.325 -22.686)" fill="#06064d"/>
      <path id="Path_5280" data-name="Path 5280" d="M213.165,380.254a4.892,4.892,0,0,0,5.1,4.724,5,5,0,0,0,5.154-4.761,4.893,4.893,0,0,0-5.1-4.725,5,5,0,0,0-5.154,4.762" transform="translate(-96.855 -170.61)" fill="#02022b"/>
      <path id="Path_5281" data-name="Path 5281" d="M139.777,70.282V229.213a4.651,4.651,0,0,0,4.849,4.491l80.563-.282a4.1,4.1,0,0,0,4.433-4.209V70.282Z" transform="translate(-63.51 -31.934)" fill="#fff"/>
    </g>
  </g>
  <g id="Group_813" data-name="Group 813" transform="translate(76.267 38.348)">
    <g id="Group_812" data-name="Group 812" clip-path="url(#clip-path-3)">
      <path id="Path_5362" data-name="Path 5362" d="M0,0H30.425V30.425H0Z" transform="translate(-0.526 133.527)" fill="#669ec2"/>
      <rect id="Rectangle_566" data-name="Rectangle 566" width="30.425" height="30.425" transform="translate(29.939 133.527)" fill="#fff"/>
      <path id="Path_5361" data-name="Path 5361" d="M0,0H30.425V30.425H0Z" transform="translate(60.442 133.527)" fill="#669ec2"/>
      <path id="Path_5282" data-name="Path 5282" d="M158.884,344.666h0a9.378,9.378,0,0,0-9.378,9.378h18.756a9.378,9.378,0,0,0-9.378-9.378" transform="translate(-144.197 -194.952)" fill="#fff"/>
      <path id="Path_5283" data-name="Path 5283" d="M162.55,333.861a4.975,4.975,0,1,0-4.975-4.975,4.975,4.975,0,0,0,4.975,4.975" transform="translate(-147.864 -185.522)" fill="#fff"/>
      <path id="Path_5284" data-name="Path 5284" d="M218.673,320.463a6.564,6.564,0,0,0-6.129,4.224,6.563,6.563,0,0,0-12.7,2.342c0,8.741,12.7,17.9,12.7,17.9s12.7-9.158,12.7-17.9a6.567,6.567,0,0,0-6.567-6.567" transform="translate(-167.072 -183.955)" fill="#06064d"/>
      <path id="Path_5285" data-name="Path 5285" d="M219.626,333.649l-6.755-.04-1.162-3.487a.868.868,0,0,0-.89-.612.89.89,0,0,0-.822.653l-1.975,7.053-1.28-10.561a.9.9,0,0,0-1.743-.161l-2.134,6.759H196.3a.9.9,0,0,0,0,1.791h7.226a.891.891,0,0,0,.853-.626l1.087-3.442,1.323,10.914a.9.9,0,0,0,.83.785l.059,0a.9.9,0,0,0,.862-.654l2.4-8.564.441,1.324a.9.9,0,0,0,.844.613l7.4.044a.9.9,0,0,0,.005-1.79" transform="translate(-165.051 -186.411)" fill="#fff"/>
      <rect id="Rectangle_568" data-name="Rectangle 568" width="6.64" height="20.701" transform="translate(72.335 138.39)" fill="#fff"/>
      <rect id="Rectangle_569" data-name="Rectangle 569" width="20.701" height="6.64" transform="translate(65.304 145.42)" fill="#fff"/>
    </g>
  </g>
  <g id="Group_815" data-name="Group 815">
    <g id="Group_814" data-name="Group 814" clip-path="url(#clip-path)">
      <path id="Path_5287" data-name="Path 5287" d="M135.92,334.986c2.125-5.094-2.955-36.732-29.6-52.08,2.237-13.224-.694-53.639-14.206-52.591-6.486.5-15.128,41.9-13.283,56.23,1.665,12.921,8.837,22.278,18.5,48.716,0,0,34.082-8.061,38.586-.275" transform="translate(-35.704 -104.638)" fill="#ffb18a"/>
      <path id="Path_5288" data-name="Path 5288" d="M159.021,378.8a29.069,29.069,0,0,0-.6-7.767,62.175,62.175,0,0,0-1.942-7.5,72.422,72.422,0,0,0-10.489-20.474,76.708,76.708,0,0,0-4.91-5.944,74.321,74.321,0,0,0-5.549-5.432c-1.932-1.753-4.018-3.328-6.105-4.967a47.163,47.163,0,0,1,7.018,3.768,52.162,52.162,0,0,1,6.338,4.919,54.746,54.746,0,0,1,5.515,5.879,55.527,55.527,0,0,1,4.559,6.665A53.814,53.814,0,0,1,158.8,362.9a46.417,46.417,0,0,1,1.113,7.964,35.393,35.393,0,0,1-.083,4.02,15.745,15.745,0,0,1-.8,3.917" transform="translate(-58.805 -148.449)" fill="#f19364"/>
      <path id="Path_5289" data-name="Path 5289" d="M136,441.807c1.511-5.237,2.764-10.032,3.7-14.288-5.084-16.462-32.541-36.035-53.386-32.25C81.8,405.859,74.978,422.4,67.09,441.807Z" transform="translate(-30.483 -179.38)" fill="#f19364"/>
      <path id="Path_5290" data-name="Path 5290" d="M78.856,428.3c-3.469,8.387-7.458,18.129-11.766,28.729H136C115.432,439.3,98.445,430.9,78.856,428.3" transform="translate(-30.483 -194.605)" fill="#e78453"/>
      <path id="Path_5291" data-name="Path 5291" d="M118.6,461.989c-22.314-14.672-42.745-21.081-67.471-22.775-4.29,6.864-8.819,14.511-13.547,22.775Z" transform="translate(-17.075 -199.563)" fill="#d3e5f3"/>
      <path id="Path_5292" data-name="Path 5292" d="M51.193,461.989q4.655-11.149,9.544-21.845-4.707-.6-9.61-.93c-4.29,6.864-8.819,14.511-13.547,22.775Z" transform="translate(-17.075 -199.563)" fill="#c6dced"/>
      <path id="Path_5293" data-name="Path 5293" d="M295.29,326.439c.859,10.2,15.858,10.084,16.416-.561.671-12.806-17.152-8.175-16.416.561" transform="translate(-134.159 -144.472)" fill="#ffb18a"/>
      <path id="Path_5294" data-name="Path 5294" d="M313.847,284.94c.052-13.03-22.555-10.733-20.918,3.153,1.158,9.821,20.861,10.933,20.918-3.153" transform="translate(-133.058 -125.55)" fill="#ffb18a"/>
      <path id="Path_5295" data-name="Path 5295" d="M313.546,242.007c-2.234-13.129-20.721-6.829-19.642,2.62,1.63,14.275,22.07,11.646,19.642-2.62" transform="translate(-133.519 -106.564)" fill="#ffb18a"/>
      <path id="Path_5296" data-name="Path 5296" d="M311.027,323.541a10.467,10.467,0,0,1,.272,3.165c-.486,9.262-11.9,10.552-15.426,4.014,2.324,8.4,15.584,7.688,16.108-2.309a8.769,8.769,0,0,0-.954-4.87" transform="translate(-134.434 -147.005)" fill="#f19364"/>
      <path id="Path_5297" data-name="Path 5297" d="M311.459,277.511a7.922,7.922,0,0,1,3.462,6.947c-.038,9.5-9.016,12.086-15.211,9.749,6.012,3.872,17.214,1.89,17.257-8.726a7.957,7.957,0,0,0-5.508-7.97" transform="translate(-136.178 -126.091)" fill="#f19364"/>
      <path id="Path_5298" data-name="Path 5298" d="M314.49,244.493a9.882,9.882,0,0,0-1.853-4.488,11.273,11.273,0,0,1,.83,2.783c2.033,11.945-11.964,15.729-17.53,8.265,4.582,9.653,20.726,6.209,18.553-6.56" transform="translate(-134.463 -109.05)" fill="#f19364"/>
      <path id="Path_5299" data-name="Path 5299" d="M107.882,147.35c-1.079-8.891-1.542-15.868-1.525-16.825.071-3.872,6.544-3.907,7.091-2.878.611,1.151,2.938,9.046,5.483,17.872q-5.525.91-11.049,1.83" transform="translate(-48.324 -57.739)" fill="#f19b70"/>
      <path id="Path_5300" data-name="Path 5300" d="M106.962,141.852c.248,3,.639,7.07,1.195,11.649q5.524-.92,11.049-1.83c-1.175-4.076-2.3-7.952-3.238-11.058a79.7,79.7,0,0,0-9.005,1.24" transform="translate(-48.6 -63.889)" fill="#d8855b"/>
      <path id="Path_5301" data-name="Path 5301" d="M110.242,110.083c3.826-1.877,1.259-26.128-1.171-25.986-2.127.136-.979,11.234-1.4,11.185-.551-.061-1.116-1.155-1.693-1.269-.529-.1-1.3.987-1.3.987s-2.387-2.046-3.352-.079a13.684,13.684,0,0,0-.551,1.812s-1.4-.559-1.653-.241a4.288,4.288,0,0,0-.844,1.89c-.186.966-.009,7.985,1.348,10.515a5.446,5.446,0,0,0,4.683,2.694" transform="translate(-44.629 -38.211)" fill="#ffb18a"/>
      <path id="Path_5302" data-name="Path 5302" d="M111.139,117.832h-.019a.375.375,0,0,1-.356-.393,4.636,4.636,0,0,1,.932-2.444c-1.74-.332-4.072-1.181-4.171-2.747a1.4,1.4,0,0,1,.6-1.195c1.185-.961,3.992-1.313,6.007-.751a.375.375,0,0,1-.2.722c-1.753-.488-4.345-.191-5.334.612a.7.7,0,0,0-.325.564c.068,1.058,2.2,1.9,4.171,2.156a.375.375,0,0,1,.23.624,4.233,4.233,0,0,0-1.161,2.5.375.375,0,0,1-.374.357" transform="translate(-48.854 -49.995)" fill="#f19364"/>
      <path id="Path_5303" data-name="Path 5303" d="M108.892,107.542a.376.376,0,0,1-.354-.247c-.617-1.7.06-4.991,1.487-5.688.59-.288,1.513-.285,2.55,1.366a.375.375,0,0,1-.635.4c-.409-.651-1.015-1.367-1.585-1.091-.968.473-1.633,3.319-1.111,4.758a.375.375,0,0,1-.225.481.37.37,0,0,1-.127.022" transform="translate(-49.212 -46.101)" fill="#f19365"/>
      <path id="Path_5304" data-name="Path 5304" d="M105.369,113.01a2.037,2.037,0,0,1-1.66-1.065c-1.582-2.39-1.843-8.557,0-9.984.579-.448,1.577-.641,3.041.987a.375.375,0,0,1-.558.5c-.6-.662-1.431-1.355-2.024-.9-1.392,1.078-1.287,6.783.165,8.977.63.952,1.208.778,1.588.565a.375.375,0,1,1,.367.654,1.877,1.877,0,0,1-.92.26" transform="translate(-46.537 -46.184)" fill="#f19364"/>
      <path id="Path_5305" data-name="Path 5305" d="M100.252,114.34a2.051,2.051,0,0,1-1.634-.961c-1.235-1.683-1.671-5.585-.411-6.728.356-.324,1.148-.7,2.436.46a.375.375,0,1,1-.5.559c-.446-.4-1.057-.8-1.432-.463-.822.746-.666,4.124.512,5.728.736,1,1.429.6,1.657.463a.375.375,0,1,1,.379.647,1.986,1.986,0,0,1-1.006.3" transform="translate(-44.278 -48.311)" fill="#f19364"/>
      <path id="Path_5306" data-name="Path 5306" d="M152.307,113.921q-7.9-3.848-15.785-7.751c-4.716,5.208-17.067,24.913-14.516,39.717a148.869,148.869,0,0,0-5.557-21.056q-5.849,1.42-11.7,2.857c-.113.011,3.111,40.534,19.866,41.75,12.844-3.251,27.5-55.617,27.689-55.517" transform="translate(-47.595 -48.24)" fill="#d3e5f3"/>
      <path id="Path_5307" data-name="Path 5307" d="M164.539,134.718q-4.485-14.372-8.772-28.868c-.072-.052-9.735,38.734-8.57,61.628,6.335-5.256,12.644-20.07,17.341-32.761" transform="translate(-66.837 -48.094)" fill="#9fbfd4"/>
      <path id="Path_5308" data-name="Path 5308" d="M211.868,102.655a128.4,128.4,0,0,0-25.247-.645c-.092.007-3.74.685-3.74.685-2.609,39.01-4.285,75.914-4.694,115.117,15.942-.306,32.142.319,48.084,0-.285-4.982-1.782-27.809-3.866-56.335-2.114-28.929-4.963-58.087-10.537-58.821" transform="translate(-80.962 -46.191)" fill="#9fbfd4"/>
      <path id="Path_5309" data-name="Path 5309" d="M251.836,218.111q-3.17-25.379-5.709-50.881-.355-30.847.224-61.694-10.05-1.7-20.1-3.422-5.731,30.974-10.525,62.264,2.235,26.923,5.175,53.734Z" transform="translate(-98.02 -46.396)" fill="#d3e5f3"/>
      <path id="Path_5310" data-name="Path 5310" d="M190.03,218.443q-.825-26.863-.956-53.734Q181.186,134,174.217,102.844q-6.964.947-13.927,1.909-1.882,31.719-2.8,63.522-.509,25.069-.414,50.168Z" transform="translate(-71.363 -46.729)" fill="#d3e5f3"/>
      <path id="Path_5311" data-name="Path 5311" d="M189,30.689c-.05-.131-31.447,26.793,16.678,28.567,11.707.415,19.294-3.816,18.639-17.689-.309-6.758-2.56-15.81-7.13-27.855-6.678.637-28.206,16.927-28.187,16.977" transform="translate(-81.284 -6.23)" fill="#02022b"/>
      <path id="Path_5312" data-name="Path 5312" d="M224.319,64.324c-.871,11.266-7.8,14.827-18.084,14.433-22.8-.87-27.214-7.964-25.713-14.961-3.925,7.745-2.637,17.23,25.157,18.217,11.7.414,19.206-3.834,18.64-17.689" transform="translate(-81.28 -28.987)" fill="#06064d"/>
      <path id="Path_5313" data-name="Path 5313" d="M214.684,102.156a120.964,120.964,0,0,0-21.039-.175c1.571,5.932,9.548,17.985,9.556,17.973-.01-.02,10.807-13.137,11.483-17.8" transform="translate(-87.985 -46.163)" fill="#d3e5f3"/>
      <path id="Path_5314" data-name="Path 5314" d="M180.011,138.455a5,5,0,0,0,3.806,5.908,4.886,4.886,0,0,0,5.741-3.913,5,5,0,0,0-3.795-5.9,4.873,4.873,0,0,0-5.752,3.9" transform="translate(-81.746 -61.088)" fill="#fff"/>
      <path id="Path_5315" data-name="Path 5315" d="M183.543,140.524a3,3,0,0,0,2.282,3.544,2.93,2.93,0,0,0,3.446-2.347,3,3,0,0,0-2.278-3.541,2.926,2.926,0,0,0-3.45,2.344" transform="translate(-83.369 -62.756)" fill="#06064d"/>
      <path id="Path_5316" data-name="Path 5316" d="M224.817,152.058a19.08,19.08,0,0,0,10.483-13.3,19.281,19.281,0,0,0-4.392-16.414l-.7.646a18.291,18.291,0,0,1,4.166,15.572,18.093,18.093,0,0,1-9.945,12.613l.392.88" transform="translate(-101.971 -55.59)" fill="#fff"/>
      <path id="Path_5317" data-name="Path 5317" d="M220.48,174.677c-1.194.525-1.952,1.444-1.694,2.053s1.435.674,2.628.148,1.952-1.443,1.694-2.051-1.434-.675-2.628-.151" transform="translate(-99.386 -79.206)" fill="#fff"/>
      <path id="Path_5318" data-name="Path 5318" d="M220.853,151.961l.685-.669a18.132,18.132,0,0,1-4.523-15.538,17.845,17.845,0,0,1,9.83-12.732l-.395-.876a18.811,18.811,0,0,0-10.368,13.426,19.123,19.123,0,0,0,4.77,16.389" transform="translate(-98.039 -55.498)" fill="#fff"/>
      <path id="Path_5319" data-name="Path 5319" d="M226.491,175.426c.917.937,1.289,2.073.829,2.54s-1.577.088-2.5-.849-1.289-2.076-.828-2.543,1.578-.085,2.5.852" transform="translate(-101.686 -79.23)" fill="#fff"/>
      <path id="Path_5320" data-name="Path 5320" d="M230.617,112.849a.376.376,0,0,1-.366-.46c.055-.236.162-.569.3-.991.654-2.034,2.014-6.265.2-8.645-1.015-1.331-2.93-1.944-5.694-1.82a.379.379,0,0,1-.391-.358.375.375,0,0,1,.358-.391c3.023-.135,5.15.577,6.323,2.114,2.055,2.692.613,7.175-.079,9.33-.13.405-.234.726-.281.931a.375.375,0,0,1-.365.29" transform="translate(-102.078 -45.513)" fill="#06064d"/>
      <path id="Path_5321" data-name="Path 5321" d="M186.037,124.231a.376.376,0,0,1-.352-.246c-.947-2.578-5.441-15.731-.89-21.566,1.736-2.226,4.563-3.147,8.4-2.74a.375.375,0,0,1-.079.746c-3.561-.379-6.163.447-7.729,2.455-4.306,5.522.081,18.333,1,20.845a.376.376,0,0,1-.223.482.383.383,0,0,1-.129.023" transform="translate(-83.054 -45.248)" fill="#06064d"/>
      <path id="Path_5322" data-name="Path 5322" d="M200.584,49.588q-5.27-.5-10.541-.993c-6.856-.658-4.914,8.721-2.2,8.96q6.174.575,12.349,1.144.187-4.556.4-9.112" transform="translate(-84.218 -22.065)" fill="#d58c67"/>
      <path id="Path_5323" data-name="Path 5323" d="M215.591,64.093q-7.439-3.05-14.869-6.14Q199.575,71.117,198.6,84.3c-.558,7.408,13.175,9.576,13.97,2.727-.033-.046,2.988-22.945,3.026-22.936" transform="translate(-90.227 -26.332)" fill="#ffb18a"/>
      <path id="Path_5324" data-name="Path 5324" d="M199.456,81.632c3.849,3.131,10.188,3.637,15.019-2.867.748-5.665,1.5-11.263,1.515-11.259q-2.482-1.017-4.962-2.041c-3.407,1.809-7.654,4.121-10.758,5.991q-.418,5.087-.814,10.176" transform="translate(-90.626 -29.745)" fill="#ffb18a"/>
      <path id="Path_5325" data-name="Path 5325" d="M242.956,60.981c3.269.283,8.779-9.389.312-9.927q-.168,4.963-.312,9.927" transform="translate(-110.391 -23.197)" fill="#d58c67"/>
      <path id="Path_5326" data-name="Path 5326" d="M221.727,23.88c.248-4.73.427-12.163-7.752-16.611-12.6-6.88-16.366.262-19.877,5.955-3.428,5.34-11.62,39.434,7.536,40.354,10.474.493,19.053-9.97,20.092-29.7" transform="translate(-86.054 -2.019)" fill="#ffb18a"/>
      <path id="Path_5328" data-name="Path 5328" d="M209.806,59.636c-.917,0-1.052-.3-1.107-.42-.414-.912.2-8.164.715-8.434l.174.332.07.368-.07-.368.37.063c-.276,1.651-.942,6.65-.6,7.67a6.165,6.165,0,0,0,1.994-.154.375.375,0,1,1,.148.736,8.856,8.856,0,0,1-1.7.207" transform="translate(-94.763 -23.073)" fill="#ba3518"/>
      <path id="Path_5329" data-name="Path 5329" d="M203.652,69.448c1.3,4.069,7.119,6.5,10.81-.144a73.059,73.059,0,0,0-10.81.144" transform="translate(-92.532 -31.43)" fill="#fff"/>
      <path id="Path_5330" data-name="Path 5330" d="M201.735,56.646A1.462,1.462,0,0,0,202.9,58.3a1.419,1.419,0,0,0,1.3-1.507,1.465,1.465,0,0,0-1.16-1.652,1.419,1.419,0,0,0-1.306,1.508" transform="translate(-91.66 -25.052)" fill="#671809"/>
      <path id="Path_5331" data-name="Path 5331" d="M223.533,57.936a1.456,1.456,0,0,0,1.162,1.642,1.413,1.413,0,0,0,1.3-1.5,1.457,1.457,0,0,0-1.161-1.642,1.413,1.413,0,0,0-1.305,1.5" transform="translate(-101.565 -25.642)" fill="#671809"/>
      <path id="Path_5332" data-name="Path 5332" d="M227.058,50.655a.375.375,0,0,1-.368-.3,3.207,3.207,0,0,0-2.816-2.835,2.941,2.941,0,0,0-3.019,1.912.375.375,0,0,1-.7-.265,3.681,3.681,0,0,1,3.783-2.395,3.932,3.932,0,0,1,3.49,3.438.375.375,0,0,1-.369.447" transform="translate(-100.019 -21.244)" fill="#671809"/>
      <path id="Path_5333" data-name="Path 5333" d="M198.1,50.013a.379.379,0,0,1-.143-.028.375.375,0,0,1-.2-.49,4.27,4.27,0,0,1,3.835-2.781,3.685,3.685,0,0,1,3.422,2.406.375.375,0,0,1-.692.291,2.945,2.945,0,0,0-2.719-1.946h-.009a3.524,3.524,0,0,0-3.143,2.317.376.376,0,0,1-.347.232" transform="translate(-89.839 -21.225)" fill="#671809"/>
      <path id="Path_5334" data-name="Path 5334" d="M221.5,20.63a22.3,22.3,0,0,1,.964,9.147c-1.053,19.732-9.639,30.193-20.113,29.693a11.07,11.07,0,0,1-9.9-6.274c1.741,4.379,5.007,7.463,10.571,7.735,10.474.492,19.053-9.971,20.091-29.7.157-2.943.28-6.938-1.618-10.6" transform="translate(-87.444 -9.374)" fill="#f19b70"/>
      <path id="Path_5335" data-name="Path 5335" d="M214.617,7.269c-12.6-6.881-16.366.262-19.877,5.954-1.151,1.86-2.924,7.114-3.931,13.26a50.446,50.446,0,0,0,15.081-5.509,7.64,7.64,0,0,1-2.538,4.176,15.916,15.916,0,0,0,8.369-2.54,38.1,38.1,0,0,0,9.041,12.457,58.95,58.95,0,0,0,1.606-11.186c.248-4.73.427-12.163-7.751-16.611" transform="translate(-86.697 -2.019)" fill="#f2976a"/>
      <path id="Path_5336" data-name="Path 5336" d="M133.473,222.007a375,375,0,0,0-16.4-40.013c11.451.265,20.774-.041,33.433-4.341,2.975,9.793,12.359,38.873,13.622,41.44-5.632,1.419-11.573,3.6-17.5,4-4.672.317-8.46-.646-13.152-1.087" transform="translate(-53.194 -80.719)" fill="#fff"/>
      <path id="Path_5337" data-name="Path 5337" d="M161.622,214.7a40.985,40.985,0,0,1-18.647-.163,13.152,13.152,0,0,0,8.643,3.78c3.356.224,7.261-1.615,10-3.618" transform="translate(-64.963 -97.476)" fill="#d2e0fd"/>
      <path id="Path_5338" data-name="Path 5338" d="M214.539,7.482h0C210.66-.219,201.263-.974,195.437.8s-10.415,5.939-13.66,10.664c-2.939,4.279-4.984,9.129-8.718,12.878a51.2,51.2,0,0,0,25.161-6.452,7.637,7.637,0,0,1-2.54,4.174,15.921,15.921,0,0,0,8.372-2.536,38.214,38.214,0,0,0,10.468,13.7c3.045-7.068,3.118-17.759.02-25.743" transform="translate(-78.632 0)" fill="#02022b"/>
      <path id="Path_5339" data-name="Path 5339" d="M251.162,263.333a18.937,18.937,0,0,1-14.791-4.075c4.552,1.394,10.236,2.7,14.791,4.075" transform="translate(-107.399 -117.798)" fill="#9fbfd4"/>
      <path id="Path_5340" data-name="Path 5340" d="M167.222,264.989a18.875,18.875,0,0,0,14.59-4.82c-4.487,1.6-10.106,3.194-14.59,4.82" transform="translate(-75.98 -118.212)" fill="#9fbfd4"/>
      <path id="Path_5341" data-name="Path 5341" d="M219.053,212.526q-1,5.282-1.972,10.576.122,1.394.246,2.788a279.663,279.663,0,0,0,30.783,4.744q-.706-6.661-1.369-13.33c0-.175,0-.349-.006-.523q-13.843-2.1-27.681-4.254" transform="translate(-98.634 -96.564)" fill="#9fbfd4"/>
      <path id="Path_5342" data-name="Path 5342" d="M182.625,216.3s-9.142.792-9.119,2.341c.019,1.331,8.23.952,8.23.952s-5.785,1.531-8.183,2.144c-2.682.683-2.271,2.362.331,2.128,2.706-.243,8.051-1.175,8.051-1.174s-3.9,1.578-6.268,2.434c-2.111.761-1.307,2.063.382,1.816a55.087,55.087,0,0,0,7.044-1.929s-4.033,1.9-3.849,2.605c.378,1.449,5.939-.617,7.75-1.94,2.158-1.579,5.053-3.13,4.613-6.174-.212-1.445-5.842-7.218-10.443-7.911q.728,2.355,1.461,4.709" transform="translate(-78.027 -96.138)" fill="#ff5f3b"/>
      <path id="Path_5343" data-name="Path 5343" d="M222.6,223.806l-19.8.283q-.052-3.621-.091-7.242,11.124-1.569,22.249-3.107-1.19,5.027-2.356,10.066" transform="translate(-92.105 -97.116)" fill="#ff5f3b"/>
      <path id="Path_5344" data-name="Path 5344" d="M253.86,182.826l-15.932-31.247,2.995,27.112-23.36,9.719Z" transform="translate(-98.853 -68.872)" fill="#9fbfd4"/>
      <path id="Path_5345" data-name="Path 5345" d="M208.389,224.046l16.784-.24q1.165-5.039,2.356-10.066c-6.625.916-11.956,1.64-18.579,2.573a49.335,49.335,0,0,0-.56,7.733" transform="translate(-94.673 -97.116)" fill="#ba3518"/>
      <path id="Path_5346" data-name="Path 5346" d="M243.878,108.214c-3.095,3.039-8.732,13.937-9.5,23.588.243,11.811,6.354,29.616,6.368,29.6q-15.23,2.046-30.456,4.149.63,6.706,1.3,13.4s27.533-2.108,42.7-7.038c-.422-18.841-3.627-47.071-10.411-63.7" transform="translate(-95.548 -49.169)" fill="#d3e5f3"/>
      <path id="Path_5347" data-name="Path 5347" d="M329.413,89.986a.375.375,0,0,1-.375-.378l.366-45.6a8.869,8.869,0,0,1,8.857-8.787h.073l42.581.342A8.869,8.869,0,0,1,389.7,44.49l-.176,21.926a8.869,8.869,0,0,1-8.857,8.787H380.6l-35.568-.285L329.675,89.879a.374.374,0,0,1-.262.106m8.847-54.016a8.117,8.117,0,0,0-8.107,8.043l-.358,44.7,14.82-14.441a.356.356,0,0,1,.265-.107l35.722.286h.066a8.117,8.117,0,0,0,8.107-8.043l.176-21.926a8.118,8.118,0,0,0-8.043-8.173l-42.581-.342h-.066" transform="translate(-149.503 -16.002)" fill="#9caee8"/>
      <path id="Path_5348" data-name="Path 5348" d="M387.2,60.167H352.725a.375.375,0,0,1,0-.75H387.2a.375.375,0,0,1,0,.75" transform="translate(-160.095 -26.997)" fill="#9caee8"/>
      <path id="Path_5349" data-name="Path 5349" d="M408.992,69.621h-8.3a.375.375,0,0,1,0-.75h8.3a.375.375,0,0,1,0,.75" transform="translate(-181.888 -31.293)" fill="#9caee8"/>
      <path id="Path_5350" data-name="Path 5350" d="M373.988,69.621H352.725a.375.375,0,0,1,0-.75h21.263a.375.375,0,0,1,0,.75" transform="translate(-160.095 -31.293)" fill="#9caee8"/>
      <path id="Path_5351" data-name="Path 5351" d="M366.816,79.076H352.724a.375.375,0,1,1,0-.75h14.092a.375.375,0,0,1,0,.75" transform="translate(-160.095 -35.589)" fill="#9caee8"/>
      <path id="Path_5352" data-name="Path 5352" d="M53.027,156.651a.376.376,0,0,1-.262-.106L41.422,145.491l-26.3.211h-.054A6.667,6.667,0,0,1,8.407,139.1l-.13-16.239a6.665,6.665,0,0,1,6.6-6.711l31.538-.253a6.65,6.65,0,0,1,6.711,6.6l.271,33.775a.375.375,0,0,1-.375.378M41.573,144.739a.375.375,0,0,1,.262.106l10.81,10.534L52.381,122.5a5.908,5.908,0,0,0-5.907-5.861h-.049l-31.539.253a5.915,5.915,0,0,0-5.86,5.956l.13,16.24a5.916,5.916,0,0,0,5.908,5.861h.048l26.458-.212ZM14.884,116.521h0Z" transform="translate(-3.761 -52.657)" fill="#06064d"/>
      <path id="Path_5353" data-name="Path 5353" d="M51.452,134.565H25.917a.375.375,0,1,1,0-.75H51.452a.375.375,0,0,1,0,.75" transform="translate(-11.605 -60.801)" fill="#06064d"/>
      <path id="Path_5354" data-name="Path 5354" d="M32.068,141.568h-6.15a.375.375,0,1,1,0-.75h6.15a.375.375,0,0,1,0,.75" transform="translate(-11.605 -63.983)" fill="#06064d"/>
      <path id="Path_5355" data-name="Path 5355" d="M59.6,141.568H43.85a.375.375,0,1,1,0-.75H59.6a.375.375,0,0,1,0,.75" transform="translate(-19.753 -63.983)" fill="#06064d"/>
      <path id="Path_5356" data-name="Path 5356" d="M64.023,148.57H53.586a.375.375,0,0,1,0-.75H64.023a.375.375,0,0,1,0,.75" transform="translate(-24.177 -67.164)" fill="#06064d"/>
      <path id="Path_5357" data-name="Path 5357" d="M374.758,248.42l.286-19.989a7.117,7.117,0,0,0-7.06-7.174l-18.4-.147-19.863-.159,12.643,12.974-.24,14.234a7.118,7.118,0,0,0,7.06,7.175l18.4.147a7.117,7.117,0,0,0,7.174-7.06" transform="translate(-149.815 -100.392)" fill="#669ec2"/>
      <path id="Path_5358" data-name="Path 5358" d="M384.913,238.62h-8.8a.375.375,0,0,1-.375-.375v-3.227a.375.375,0,0,1,.375-.375h8.8a.374.374,0,0,1,.375.375v3.227a.374.374,0,0,1-.375.375m-8.424-.75h8.049v-2.477h-8.049Z" transform="translate(-170.722 -106.613)" fill="#fff"/>
      <path id="Path_5359" data-name="Path 5359" d="M382.89,257.675h-8.864a2.813,2.813,0,0,1-2.811-2.811v-8.9a2.814,2.814,0,0,1,2.811-2.811h8.864a2.814,2.814,0,0,1,2.811,2.811v8.9a2.814,2.814,0,0,1-2.811,2.811M374.027,243.9a2.063,2.063,0,0,0-2.06,2.06v8.9a2.063,2.063,0,0,0,2.06,2.06h8.864a2.063,2.063,0,0,0,2.061-2.06v-8.9a2.063,2.063,0,0,0-2.061-2.06Z" transform="translate(-168.667 -110.481)" fill="#fff"/>
      <path id="Path_5360" data-name="Path 5360" d="M385,256.908H375.2a.375.375,0,0,1-.375-.375v-5.891a.375.375,0,0,1,.375-.375H385a.374.374,0,0,1,.375.375v5.891a.374.374,0,0,1-.375.375m-9.417-.75h9.042v-5.14h-9.042Z" transform="translate(-170.309 -113.713)" fill="#fff"/>
    </g>
  </g>
</svg>
