<svg id="documentation" xmlns="http://www.w3.org/2000/svg" xmlns:xlink="http://www.w3.org/1999/xlink" width="333.004" height="261.037" viewBox="0 0 333.004 261.037">
  <defs>
    <clipPath id="clip-path">
      <rect id="Rectangle_562" data-name="Rectangle 562" width="333.004" height="261.036" fill="none"/>
    </clipPath>
    <clipPath id="clip-path-3">
      <rect id="Rectangle_544" data-name="Rectangle 544" width="24.16" height="9.083" fill="none"/>
    </clipPath>
    <clipPath id="clip-path-4">
      <rect id="Rectangle_545" data-name="Rectangle 545" width="12.77" height="86.281" fill="none"/>
    </clipPath>
    <clipPath id="clip-path-5">
      <rect id="Rectangle_546" data-name="Rectangle 546" width="14.36" height="11.963" fill="none"/>
    </clipPath>
    <clipPath id="clip-path-6">
      <rect id="Rectangle_547" data-name="Rectangle 547" width="9.466" height="43.709" fill="none"/>
    </clipPath>
    <clipPath id="clip-path-7">
      <rect id="Rectangle_548" data-name="Rectangle 548" width="6.974" height="6.578" fill="none"/>
    </clipPath>
    <clipPath id="clip-path-8">
      <rect id="Rectangle_549" data-name="Rectangle 549" width="10.649" height="7.904" fill="none"/>
    </clipPath>
    <clipPath id="clip-path-9">
      <rect id="Rectangle_554" data-name="Rectangle 554" width="43.007" height="32.517" fill="none"/>
    </clipPath>
    <clipPath id="clip-path-10">
      <rect id="Rectangle_556" data-name="Rectangle 556" width="44.874" height="29.028" fill="none"/>
    </clipPath>
    <clipPath id="clip-path-11">
      <rect id="Rectangle_558" data-name="Rectangle 558" width="41.141" height="34.248" fill="none"/>
    </clipPath>
    <clipPath id="clip-path-12">
      <rect id="Rectangle_559" data-name="Rectangle 559" width="32.261" height="45.029" fill="none"/>
    </clipPath>
    <clipPath id="clip-path-13">
      <rect id="Rectangle_560" data-name="Rectangle 560" width="18.709" height="47.503" fill="none"/>
    </clipPath>
  </defs>
  <g id="Group_805" data-name="Group 805" clip-path="url(#clip-path)">
    <g id="Group_804" data-name="Group 804">
      <g id="Group_803" data-name="Group 803" clip-path="url(#clip-path)">
        <path id="Path_5188" data-name="Path 5188" d="M332.98,370.255H23.232q-1.017-1.53-2-3.093C2.768,337.975-7.411,301.513,6.412,283.008,18.3,267.094,39.1,276.294,68.653,256.094c16.859-11.525,27.175-29.418,39.878-44.9,13.061-15.917,29.478-27.178,48.686-34.494,37.08-14.126,84.448-13.991,112.448,18,8.556,9.776,10.043,22.513,10,35.088-.114,32.787,5.738,64.662,24.553,92.617,8.855,13.154,27.336,27.628,28.7,44.756a25.3,25.3,0,0,1,.057,3.093" transform="translate(0 -109.219)" fill="#d3e5f3"/>
        <path id="Path_5189" data-name="Path 5189" d="M647.624,302.61c10.209,12.54-26.248,13.53-27.458,37.161s-16.476,47.58-35.644,46.615c-14.85-.744-19.186,16.188-20.394,23.847-.343,2.226-.428,3.668-.428,3.668s-1.138-1.135-2.816-3.152c-6.331-7.6-20.362-27.783-10.386-47.322,12.624-24.734,28.257-18.175,36.966-34.573s49.959-38.782,60.16-26.244" transform="translate(-356.217 -194.674)" fill="#77a388"/>
        <path id="Path_5190" data-name="Path 5190" d="M640.989,337.888a63.856,63.856,0,0,0-11.838,9.745,52.137,52.137,0,0,0-8.9,12.375,39.46,39.46,0,0,0-2.757,7.079c-.15.616-.348,1.217-.46,1.841l-.4,1.881a13.817,13.817,0,0,1-1.4,3.741,21.184,21.184,0,0,1-5.158,5.974,63.29,63.29,0,0,1-6.323,4.541,122.379,122.379,0,0,0-12.562,8.671,30.268,30.268,0,0,0-8.954,11.663,31.247,31.247,0,0,0-1.927,14.514,62.467,62.467,0,0,0,3.26,14.635l.362,1.043c-.343,2.226-.428,3.668-.428,3.668s-1.138-1.135-2.817-3.152l-.181-.567a65.288,65.288,0,0,1-3.007-15.429,39.515,39.515,0,0,1,.319-7.957,29.809,29.809,0,0,1,2.2-7.7,28.921,28.921,0,0,1,4.219-6.79,37.828,37.828,0,0,1,5.681-5.488,124.142,124.142,0,0,1,12.983-8.476,63.2,63.2,0,0,0,6.288-4.268,19.9,19.9,0,0,0,4.994-5.474,12.638,12.638,0,0,0,1.375-3.4l.451-1.874c.135-.639.351-1.252.525-1.883a40.466,40.466,0,0,1,3-7.166,52.886,52.886,0,0,1,9.337-12.284,64.035,64.035,0,0,1,12.125-9.462" transform="translate(-376.014 -220.03)" fill="#fff"/>
        <path id="Path_5191" data-name="Path 5191" d="M667.866,478.145c8.027,9.86-20.639,10.639-21.591,29.221s-12.956,37.413-28.027,36.654c-11.677-.585-15.087,12.728-16.036,18.752-.27,1.75-.337,2.884-.337,2.884s-.895-.893-2.215-2.479c-4.978-5.979-16.011-21.847-8.167-37.211,9.927-19.449,22.219-14.291,29.067-27.185s39.284-30.494,47.305-20.636" transform="translate(-383.397 -309.49)" fill="#b87bb3"/>
        <path id="Path_5192" data-name="Path 5192" d="M662.649,505.884a50.2,50.2,0,0,0-9.309,7.662,41,41,0,0,0-7,9.73,31.016,31.016,0,0,0-2.168,5.567c-.118.484-.274.957-.362,1.447l-.315,1.48a10.871,10.871,0,0,1-1.1,2.942,16.654,16.654,0,0,1-4.056,4.7,49.73,49.73,0,0,1-4.972,3.57,96.356,96.356,0,0,0-9.878,6.819,23.8,23.8,0,0,0-7.041,9.171,24.573,24.573,0,0,0-1.515,11.412,49.152,49.152,0,0,0,2.563,11.508l.285.82c-.27,1.751-.337,2.884-.337,2.884s-.895-.893-2.215-2.479l-.142-.446a51.35,51.35,0,0,1-2.365-12.132,31.044,31.044,0,0,1,.251-6.256,23.431,23.431,0,0,1,1.726-6.053,22.74,22.74,0,0,1,3.318-5.339,29.758,29.758,0,0,1,4.467-4.316,97.588,97.588,0,0,1,10.209-6.665,49.648,49.648,0,0,0,4.944-3.356,15.651,15.651,0,0,0,3.927-4.3,9.929,9.929,0,0,0,1.081-2.676L643,530.1c.106-.5.277-.985.413-1.48a31.817,31.817,0,0,1,2.362-5.635,41.579,41.579,0,0,1,7.342-9.66,50.352,50.352,0,0,1,9.534-7.44" transform="translate(-398.964 -329.428)" fill="#fff"/>
        <path id="Path_5193" data-name="Path 5193" d="M173.833,478.145c-8.027,9.86,20.639,10.639,21.59,29.221s12.956,37.413,28.027,36.654c11.677-.585,15.087,12.728,16.036,18.752.27,1.75.337,2.884.337,2.884s.895-.893,2.215-2.479c4.978-5.979,16.011-21.847,8.167-37.211-9.926-19.449-22.218-14.291-29.067-27.185s-39.284-30.494-47.305-20.636" transform="translate(-112.277 -309.49)" fill="#77a388"/>
        <path id="Path_5194" data-name="Path 5194" d="M236.064,505.884a50.2,50.2,0,0,1,9.309,7.662,40.993,40.993,0,0,1,7,9.73,31.014,31.014,0,0,1,2.168,5.567c.118.484.274.957.362,1.447l.315,1.48a10.872,10.872,0,0,0,1.1,2.942,16.668,16.668,0,0,0,4.056,4.7,49.737,49.737,0,0,0,4.973,3.57,96.377,96.377,0,0,1,9.877,6.819,23.8,23.8,0,0,1,7.041,9.171,24.569,24.569,0,0,1,1.515,11.412,49.126,49.126,0,0,1-2.563,11.508l-.285.82c.27,1.751.337,2.884.337,2.884s.895-.893,2.215-2.479l.142-.446a51.321,51.321,0,0,0,2.365-12.132,31.022,31.022,0,0,0-.251-6.256,23.416,23.416,0,0,0-1.726-6.053,22.737,22.737,0,0,0-3.318-5.339,29.747,29.747,0,0,0-4.467-4.316,97.642,97.642,0,0,0-10.209-6.665,49.616,49.616,0,0,1-4.945-3.356,15.651,15.651,0,0,1-3.927-4.3,9.93,9.93,0,0,1-1.081-2.676l-.354-1.474c-.106-.5-.277-.985-.413-1.48a31.833,31.833,0,0,0-2.362-5.635,41.575,41.575,0,0,0-7.342-9.66,50.352,50.352,0,0,0-9.534-7.44" transform="translate(-153.723 -329.428)" fill="#fff"/>
        <path id="Path_5195" data-name="Path 5195" d="M153.224,302.61c-10.209,12.54,26.248,13.53,27.458,37.161s16.476,47.58,35.644,46.615c14.85-.744,19.186,16.188,20.394,23.847.343,2.226.428,3.668.428,3.668s1.138-1.135,2.816-3.152c6.331-7.6,20.362-27.783,10.386-47.322-12.624-24.734-28.256-18.175-36.966-34.573s-49.959-38.782-60.16-26.244" transform="translate(-98.605 -194.674)" fill="#5d7967"/>
        <path id="Path_5196" data-name="Path 5196" d="M232.367,337.888a63.857,63.857,0,0,1,11.838,9.745,52.138,52.138,0,0,1,8.9,12.375,39.461,39.461,0,0,1,2.757,7.079c.15.616.348,1.217.46,1.841l.4,1.881a13.814,13.814,0,0,0,1.4,3.741,21.185,21.185,0,0,0,5.158,5.974,63.3,63.3,0,0,0,6.323,4.541,122.375,122.375,0,0,1,12.562,8.671,30.267,30.267,0,0,1,8.954,11.663,31.241,31.241,0,0,1,1.927,14.514,62.462,62.462,0,0,1-3.26,14.635l-.362,1.043c.344,2.226.428,3.668.428,3.668s1.138-1.135,2.817-3.152l.181-.567a65.29,65.29,0,0,0,3.007-15.429,39.515,39.515,0,0,0-.319-7.957,29.808,29.808,0,0,0-2.2-7.7,28.932,28.932,0,0,0-4.219-6.79,37.825,37.825,0,0,0-5.681-5.488,124.153,124.153,0,0,0-12.983-8.476,63.2,63.2,0,0,1-6.288-4.268,19.9,19.9,0,0,1-4.993-5.474,12.626,12.626,0,0,1-1.375-3.4l-.451-1.874c-.135-.639-.352-1.252-.525-1.883a40.471,40.471,0,0,0-3-7.166,52.883,52.883,0,0,0-9.337-12.284,64.036,64.036,0,0,0-12.125-9.462" transform="translate(-151.316 -220.03)" fill="#fff"/>
        <path id="Path_5197" data-name="Path 5197" d="M432.828,179.4H320.533a8.154,8.154,0,0,0-8.144,8.144V366.786a8.154,8.154,0,0,0,8.144,8.144H432.828a8.148,8.148,0,0,0,8.144-8.144V187.54a8.154,8.154,0,0,0-8.144-8.144m2.754,187.39a2.756,2.756,0,0,1-2.754,2.754H320.533a2.758,2.758,0,0,1-2.754-2.754V187.54a2.756,2.756,0,0,1,2.754-2.753H432.828a2.755,2.755,0,0,1,2.754,2.753Z" transform="translate(-203.426 -116.821)" fill="#1c234b"/>
        <path id="Path_5198" data-name="Path 5198" d="M445.646,197.6V376.85a2.756,2.756,0,0,1-2.754,2.754H330.6a2.758,2.758,0,0,1-2.754-2.754V197.6a2.756,2.756,0,0,1,2.754-2.754H442.892a2.756,2.756,0,0,1,2.754,2.754" transform="translate(-213.489 -126.885)" fill="#e8eaef"/>
        <rect id="Rectangle_543" data-name="Rectangle 543" width="65.809" height="7.706" transform="translate(132.818 76.519)" fill="#a3acc4"/>
        <path id="Path_5199" data-name="Path 5199" d="M394.871,286.48H380.779V272.388h14.092Zm-12.091-2h10.09v-10.09H382.78Z" transform="translate(-247.961 -177.377)" fill="#a3acc4"/>
        <path id="Path_5200" data-name="Path 5200" d="M503.372,277.258H439.956a1,1,0,1,1,0-2h63.416a1,1,0,1,1,0,2" transform="translate(-285.845 -179.245)" fill="#a3acc4"/>
        <path id="Path_5201" data-name="Path 5201" d="M503.372,291.6H439.956a1,1,0,0,1,0-2h63.416a1,1,0,1,1,0,2" transform="translate(-285.845 -188.585)" fill="#a3acc4"/>
        <path id="Path_5202" data-name="Path 5202" d="M473.356,305.942h-33.4a1,1,0,0,1,0-2h33.4a1,1,0,1,1,0,2" transform="translate(-285.845 -197.924)" fill="#a3acc4"/>
        <path id="Path_5203" data-name="Path 5203" d="M443.886,260.144a.6.6,0,0,1-.5-.925l18.034-27.92a.6.6,0,1,1,1.008.651l-18.034,27.92a.6.6,0,0,1-.5.275" transform="translate(-288.665 -150.441)" fill="#1c234b"/>
        <path id="Path_5204" data-name="Path 5204" d="M429.059,311.433s3.391-9.629,7.51-5.721c4.209,3.993-5.163,10.882-5.163,10.882Z" transform="translate(-279.4 -198.47)" fill="#fb9f67"/>
        <path id="Path_5205" data-name="Path 5205" d="M158.132,549.4l.345-.078s-.33.213-.345.078" transform="translate(-102.975 -357.716)" fill="#594f9c"/>
        <path id="Path_5206" data-name="Path 5206" d="M394.871,355.086H380.779V340.994h14.092Zm-12.091-2h10.09V343H382.78Z" transform="translate(-247.961 -222.053)" fill="#a3acc4"/>
        <path id="Path_5207" data-name="Path 5207" d="M503.372,345.863H439.956a1,1,0,0,1,0-2h63.416a1,1,0,1,1,0,2" transform="translate(-285.845 -223.921)" fill="#a3acc4"/>
        <path id="Path_5208" data-name="Path 5208" d="M503.372,360.205H439.956a1,1,0,0,1,0-2h63.416a1,1,0,1,1,0,2" transform="translate(-285.845 -233.26)" fill="#a3acc4"/>
        <path id="Path_5209" data-name="Path 5209" d="M473.356,374.548h-33.4a1,1,0,0,1,0-2h33.4a1,1,0,1,1,0,2" transform="translate(-285.845 -242.6)" fill="#a3acc4"/>
        <path id="Path_5210" data-name="Path 5210" d="M367.764,325.183S357.016,344.855,354.28,348.1l0,0c-2.748,3.246-22.1,8.007-22.1,8.007l-.966-1.557-5.577-8.984,21.448-5.378,14.6-18.757a7.222,7.222,0,0,1,6.084,3.75" transform="translate(-212.05 -209.315)" fill="#fff"/>
        <path id="Path_5211" data-name="Path 5211" d="M253.053,711.219l3.532-.446,3.351,3.192s4.72,2.8,6.04,5.351a3.866,3.866,0,0,1-.217,2.977l-15.63-5.383s1.4-4.231,2.925-5.691" transform="translate(-162.882 -462.851)" fill="#0c1339"/>
        <path id="Path_5212" data-name="Path 5212" d="M322.344,719.223l3.2-1.562,4.2,1.939s5.372,1.128,7.444,3.115a3.867,3.867,0,0,1,.755,2.888l-16.531-.048s-.038-4.458.931-6.331" transform="translate(-209.302 -467.336)" fill="#0c1339"/>
        <path id="Path_5213" data-name="Path 5213" d="M327.37,546.948c-.021.093-.045.195-.069.3-.087.423-.18.948-.273,1.56-1.215,8.021-2.748,30.87-2.748,30.87s-2.619,2.28-8.054.222l.513-28.857.129-7.265-.624-5.088-3.093-25.258.5-.678,6.026-8.09.51-.684,7.727,5.462s.012.576.03,1.587c.009.417.018.906.027,1.458.138,8.153.4,30.153-.606,34.458" transform="translate(-203.922 -328.19)" fill="#4e1d4e"/>
        <path id="Path_5214" data-name="Path 5214" d="M287.642,515.244s-1.221,4.355-2.892,10.049c-1.644,5.6-3.723,12.5-5.5,17.818-.327.975-.642,1.9-.945,2.748-.216.612-.426,1.191-.624,1.725-.078.2-.15.387-.222.573-.171.441-.333.843-.486,1.209a14.4,14.4,0,0,1-.759,1.6c-.384.66-.906,1.737-1.521,3.1-.153.336-.309.69-.471,1.059-3.855,8.771-10.481,26.263-10.481,26.263a7.6,7.6,0,0,1-7.772-2.13l7.353-22.723.138-.429,2.022-6.254,1.608-4.967.054-.312,5.214-29.8,4.626-3.414,4.86-3.585.069.087,2.844,3.666Z" transform="translate(-166.683 -330.656)" fill="#702a65"/>
        <path id="Path_5215" data-name="Path 5215" d="M316.491,437.818s-.519.081-1.446.189l-.39.045c-1.554.171-4,.378-6.953.429l-.639.009c-1.947.018-4.095-.036-6.338-.216-1.326-.105-2.688-.252-4.062-.456l-3.369-41.471,3.63-6.2,4.509-.543,2.289.261.852.1,2.964,2.679L312,396.676l2.025,18.574,1.1,10.07Z" transform="translate(-190.991 -253.707)" fill="#4353a0"/>
        <g id="Group_772" data-name="Group 772" transform="translate(118.068 137.712)" style="mix-blend-mode: multiply;isolation: isolate">
          <g id="Group_771" data-name="Group 771">
            <g id="Group_770" data-name="Group 770" clip-path="url(#clip-path-3)">
              <path id="Path_5216" data-name="Path 5216" d="M362.651,395.885c-2.748,3.246-22.1,8.006-22.1,8.006l-.966-1.557-1.092-7.526c9.017,5.438,23.872,1.158,24.16,1.077" transform="translate(-338.491 -394.808)" fill="#a3acc4"/>
            </g>
          </g>
        </g>
        <path id="Path_5217" data-name="Path 5217" d="M257.3,532.766s3.2,8.815-1.553,9.263c-4.854.458-2.778-10.937-2.778-10.937Z" transform="translate(-164.443 -345.844)" fill="#fb9f67"/>
        <path id="Path_5218" data-name="Path 5218" d="M263.116,404.983s-.654,1.023-1.62,2.559c-2.226,3.548-6.116,9.848-7.478,12.686l-.912,26.16a10.183,10.183,0,0,1-6.539,0s-2.871-21.832-2.13-26.769c1.929-12.878,12.155-22.927,12.155-22.927Z" transform="translate(-159.096 -258.323)" fill="#fff"/>
        <g id="Group_775" data-name="Group 775" transform="translate(112.73 136.157)" opacity="0.8" style="mix-blend-mode: multiply;isolation: isolate">
          <g id="Group_774" data-name="Group 774">
            <g id="Group_773" data-name="Group 773" clip-path="url(#clip-path-4)">
              <path id="Path_5219" data-name="Path 5219" d="M334.511,438.494c.138,8.153.4,30.153-.606,34.458-.021.093-.045.195-.069.3-.087.423-.18.948-.273,1.559l-7.487,1.818c.813-12.248.822-25.4.453-37.655-.087-2.823-.192-5.6-.312-8.306-1-22.594-3.03-40.32-3.03-40.32l.852.1L327,393.126l4.467,4.038,2.025,18.574,1.1,10.07,1.362,12.5s-.519.081-1.446.189" transform="translate(-323.187 -390.351)" fill="#91939a"/>
            </g>
          </g>
        </g>
        <g id="Group_778" data-name="Group 778" transform="translate(96.635 213.914)" opacity="0.5" style="mix-blend-mode: multiply;isolation: isolate">
          <g id="Group_777" data-name="Group 777">
            <g id="Group_776" data-name="Group 776" clip-path="url(#clip-path-5)">
              <path id="Path_5220" data-name="Path 5220" d="M291.4,616.288c-.078.2-.15.387-.222.573-.171.441-.333.843-.486,1.209a14.39,14.39,0,0,1-.759,1.6c-.384.66-.906,1.737-1.521,3.1-2.448.951-6.182,1.4-11.372,2.469l.138-.429,2.022-6.254,1.608-4.968.054-.312Z" transform="translate(-277.044 -613.273)" fill="#702a65"/>
            </g>
          </g>
        </g>
        <path id="Path_5221" data-name="Path 5221" d="M285.551,598.646a.6.6,0,0,1-.557-.823c.057-.142,5.731-14.351,9.545-22.8,3.79-8.4,9.588-29.281,9.647-29.491a.6.6,0,1,1,1.156.32c-.058.211-5.882,21.186-9.709,29.665-3.8,8.426-9.467,22.609-9.524,22.752a.6.6,0,0,1-.557.378" transform="translate(-185.558 -354.96)" fill="#b665a4"/>
        <path id="Path_5222" data-name="Path 5222" d="M343.126,467.18l-7.5,1.419s-1.851-65.019-9.989-77.972a12.8,12.8,0,0,1,9.38,6.182c4.461,7.5,8.111,70.371,8.111,70.371" transform="translate(-212.051 -254.374)" fill="#fff"/>
        <g id="Group_781" data-name="Group 781" transform="translate(92.934 144.356)" style="mix-blend-mode: multiply;isolation: isolate">
          <g id="Group_780" data-name="Group 780">
            <g id="Group_779" data-name="Group 779" clip-path="url(#clip-path-6)">
              <path id="Path_5223" data-name="Path 5223" d="M275.9,418.719c-2.226,3.549-6.116,9.848-7.478,12.686l-.912,26.16s-.789-19.78-1.062-26.877,3.627-14.906,3.627-14.906l5.064-1.926s.354,2.238.762,4.862" transform="translate(-266.435 -413.857)" fill="#a3acc4"/>
            </g>
          </g>
        </g>
        <path id="Path_5224" data-name="Path 5224" d="M285.18,471.838s-7,3.647-18.709,1.368c0,0,1.32-8.621,2.475-19.462.423-3.981.825-8.258,1.128-12.518.3-4.232.513-8.447.555-12.332q.014-1.228.015-2.442v-.021c.006-3.891-.072-7.658-.171-11.177a.377.377,0,0,0,0-.057v0c-.342-12.218-.93-21.436.87-22.4,2.838-1.515,8.114-1.635,8.114-1.635s2.4,12.887,4.152,40.754c.687,10.952,1.275,24.217,1.575,39.923" transform="translate(-173.524 -254.721)" fill="#fff"/>
        <path id="Path_5225" data-name="Path 5225" d="M303.208,378.55l-.261-6.662,2.754-.048,2.727-.045L310,378.374l.042.177s1.74,7.616-6.833,0" transform="translate(-197.277 -242.11)" fill="#fb9f67"/>
        <g id="Group_784" data-name="Group 784" transform="translate(105.748 129.684)" style="mix-blend-mode: multiply;isolation: isolate">
          <g id="Group_783" data-name="Group 783">
            <g id="Group_782" data-name="Group 782" clip-path="url(#clip-path-7)">
              <path id="Path_5226" data-name="Path 5226" d="M310.144,378.372c-6.783-.159-6.974-6.033-6.974-6.033l2.676-.5,2.727-.045Z" transform="translate(-303.17 -371.794)" fill="#fb9f67"/>
            </g>
          </g>
        </g>
        <path id="Path_5227" data-name="Path 5227" d="M306.035,351.261c-7.758,1.3-7.388-8.114-7.388-8.114l.318-3.123.144-1.4.357-1.344.126-.474.975-.063,5.54-.351,1.935,2.421s.264.51.6,1.326c1.242,2.994,3.492,10.1-2.607,11.12" transform="translate(-194.475 -219.058)" fill="#fb9f67"/>
        <path id="Path_5228" data-name="Path 5228" d="M394.871,423.691H380.779V409.6h14.092Zm-12.091-2h10.09V411.6H382.78Z" transform="translate(-247.961 -266.728)" fill="#a3acc4"/>
        <path id="Path_5229" data-name="Path 5229" d="M503.372,414.468H439.956a1,1,0,0,1,0-2h63.416a1,1,0,1,1,0,2" transform="translate(-285.845 -268.596)" fill="#a3acc4"/>
        <path id="Path_5230" data-name="Path 5230" d="M503.372,428.811H439.956a1,1,0,0,1,0-2h63.416a1,1,0,1,1,0,2" transform="translate(-285.845 -277.936)" fill="#a3acc4"/>
        <path id="Path_5231" data-name="Path 5231" d="M473.356,443.153h-33.4a1,1,0,0,1,0-2h33.4a1,1,0,1,1,0,2" transform="translate(-285.845 -287.275)" fill="#a3acc4"/>
        <g id="Group_787" data-name="Group 787" transform="translate(103.518 117.337)" style="mix-blend-mode: multiply;isolation: isolate">
          <g id="Group_786" data-name="Group 786">
            <g id="Group_785" data-name="Group 785" clip-path="url(#clip-path-8)">
              <path id="Path_5232" data-name="Path 5232" d="M307.426,340.141c-2.574,1.65-6.878.858-6.878.858a8.134,8.134,0,0,1-.741,3.3l-2.058-4.275L296.777,338l1.473-.717,1.1-.537,5.54-.351,1.935,2.421s.264.51.6,1.326" transform="translate(-296.777 -336.395)" fill="#fb9f67"/>
            </g>
          </g>
        </g>
        <path id="Path_5233" data-name="Path 5233" d="M394.871,492.3H380.779V478.2h14.092Zm-12.091-2h10.09v-10.09H382.78Z" transform="translate(-247.961 -311.403)" fill="#a3acc4"/>
        <path id="Path_5234" data-name="Path 5234" d="M503.372,483.073H439.956a1,1,0,0,1,0-2h63.416a1,1,0,1,1,0,2" transform="translate(-285.845 -313.271)" fill="#a3acc4"/>
        <path id="Path_5235" data-name="Path 5235" d="M503.372,497.416H439.956a1,1,0,0,1,0-2h63.416a1,1,0,1,1,0,2" transform="translate(-285.845 -322.611)" fill="#a3acc4"/>
        <path id="Path_5236" data-name="Path 5236" d="M473.356,511.758h-33.4a1,1,0,0,1,0-2h33.4a1,1,0,1,1,0,2" transform="translate(-285.845 -331.95)" fill="#a3acc4"/>
        <path id="Path_5237" data-name="Path 5237" d="M394.871,560.9H380.779V546.809h14.092Zm-12.091-2h10.09v-10.09H382.78Z" transform="translate(-247.961 -356.078)" fill="#a3acc4"/>
        <path id="Path_5238" data-name="Path 5238" d="M503.372,551.679H439.956a1,1,0,0,1,0-2h63.416a1,1,0,1,1,0,2" transform="translate(-285.845 -357.947)" fill="#a3acc4"/>
        <path id="Path_5239" data-name="Path 5239" d="M503.372,566.021H439.956a1,1,0,0,1,0-2h63.416a1,1,0,1,1,0,2" transform="translate(-285.845 -367.286)" fill="#a3acc4"/>
        <path id="Path_5240" data-name="Path 5240" d="M473.356,580.364h-33.4a1,1,0,0,1,0-2h33.4a1,1,0,1,1,0,2" transform="translate(-285.845 -376.626)" fill="#a3acc4"/>
        <path id="Path_5241" data-name="Path 5241" d="M292.591,332.843a32.238,32.238,0,0,0,6.832-1.5c2.8-1.081,1.613-6.092-2-6.657s-11.166,1.347-11.6,3.808c-.865,4.9,3.544,11.555,5.978,13.1,0,0,1.1-2.983.788-8.758" transform="translate(-186.055 -211.371)" fill="#1a2c4e"/>
        <path id="Path_5242" data-name="Path 5242" d="M299.09,356.411a1.534,1.534,0,1,0,1.3-1.74,1.534,1.534,0,0,0-1.3,1.74" transform="translate(-194.755 -230.948)" fill="#fb9f67"/>
        <path id="Path_5243" data-name="Path 5243" d="M390.959,483.118l-3.8-4.724a1.05,1.05,0,1,1,1.636-1.316l2.285,2.841,9.777-10.428a1.05,1.05,0,1,1,1.532,1.436Z" transform="translate(-251.965 -305.513)" fill="#1c234b"/>
        <rect id="Rectangle_550" data-name="Rectangle 550" width="76.926" height="18.52" transform="translate(132.348 222.347)" fill="#a3acc4"/>
        <path id="Path_5244" data-name="Path 5244" d="M733.111,464.046v86.836a9.372,9.372,0,0,1-9.377,9.377H699.346a9.382,9.382,0,0,1-9.383-9.377V464.046Z" transform="translate(-449.299 -302.184)" fill="#003559"/>
        <rect id="Rectangle_551" data-name="Rectangle 551" width="53.064" height="10.988" transform="translate(235.707 150.875)" fill="#3d4999"/>
        <path id="Path_5273" data-name="Path 5273" d="M0,0H29.679V68.876H0Z" transform="translate(254.133 168.294)" fill="#2c5e7f"/>
        <rect id="Rectangle_553" data-name="Rectangle 553" width="43.144" height="5.36" transform="translate(240.668 153.689)" fill="#fff"/>
        <g id="Group_790" data-name="Group 790" transform="translate(240.664 225.559)" opacity="0.5" style="mix-blend-mode: multiply;isolation: isolate">
          <g id="Group_789" data-name="Group 789">
            <g id="Group_788" data-name="Group 788" clip-path="url(#clip-path-9)">
              <path id="Path_5245" data-name="Path 5245" d="M732.97,671.424a9.371,9.371,0,0,1-9.236,7.751H699.346a9.382,9.382,0,0,1-9.383-9.377V646.659c2.091,15.9,10.952,34.793,43,24.765Z" transform="translate(-689.963 -646.659)" fill="#f98521"/>
            </g>
          </g>
        </g>
        <path id="Path_5246" data-name="Path 5246" d="M129.768,549.423l-.437-.1s.418.27.437.1" transform="translate(-84.219 -357.716)" fill="#594f9c"/>
        <path id="Path_5247" data-name="Path 5247" d="M152.823,601.36H130.511v-11.6a6.983,6.983,0,0,1,6.975-6.975h8.363a6.975,6.975,0,0,1,6.975,6.975ZM132.79,599.08h17.754v-9.318a4.7,4.7,0,0,0-4.7-4.7h-8.363a4.7,4.7,0,0,0-4.7,4.7Z" transform="translate(-84.988 -379.508)" fill="#003559"/>
        <path id="Path_5248" data-name="Path 5248" d="M140.9,611.175v36.581a4.952,4.952,0,0,1-4.95,4.954H96.026a4.951,4.951,0,0,1-4.95-4.954V611.175a4.951,4.951,0,0,1,4.95-4.954H135.95a4.955,4.955,0,0,1,4.95,4.954" transform="translate(-59.308 -394.767)" fill="#2c5e7f"/>
        <path id="Path_5249" data-name="Path 5249" d="M140.9,611.179v12.507H91.074V611.179a4.952,4.952,0,0,1,4.95-4.954h39.924a4.955,4.955,0,0,1,4.95,4.954" transform="translate(-59.307 -394.77)" fill="#003559"/>
        <rect id="Rectangle_555" data-name="Rectangle 555" width="6.678" height="9.623" transform="translate(53.341 224.104)" fill="#ac67a7"/>
        <g id="Group_793" data-name="Group 793" transform="translate(31.768 228.914)" opacity="0.5" style="mix-blend-mode: multiply;isolation: isolate">
          <g id="Group_792" data-name="Group 792">
            <g id="Group_791" data-name="Group 791" clip-path="url(#clip-path-10)">
              <path id="Path_5250" data-name="Path 5250" d="M135.95,685.305H96.026a4.952,4.952,0,0,1-4.95-4.954V656.277s7.864,27.1,44.874,29.028" transform="translate(-91.076 -656.277)" fill="#3e1640"/>
            </g>
          </g>
        </g>
        <path id="Path_5251" data-name="Path 5251" d="M545.62,318.614a8.324,8.324,0,0,1-4.265-8.735c.468-2.843,2.166-6.348,4.269-9.811a48.468,48.468,0,0,0-13.552-3.795c-7.58-1.152-12.486-4.323-14.582-9.424-2.842-6.92.049-16.956,7.934-27.536l1.9,1.418c-7.375,9.9-10.16,19.087-7.642,25.217,1.757,4.277,6.045,6.962,12.744,7.98a50.168,50.168,0,0,1,14.462,4.13,126.008,126.008,0,0,1,9.65-12.7l1.783,1.565a129.039,129.039,0,0,0-9.343,12.272,18.059,18.059,0,0,1,5.381,4.788,13.2,13.2,0,0,1,2.271,10.312c-.774,4.53-4.553,5.981-7.954,5.41a9.309,9.309,0,0,1-3.056-1.094m2.092-17.421c-2,3.259-3.594,6.513-4.016,9.072-.646,3.92,2.286,6.585,5.373,7.1,2.176.365,4.691-.355,5.223-3.47a10.908,10.908,0,0,0-1.856-8.523,15.793,15.793,0,0,0-4.724-4.182" transform="translate(-336.29 -168.864)" fill="#424d9c"/>
        <rect id="Rectangle_557" data-name="Rectangle 557" width="4.22" height="4.22" transform="translate(187.366 91.692) rotate(-60.32)" fill="#1d1d46"/>
        <path id="Path_5252" data-name="Path 5252" d="M622.01,205.494l10.111-26.068a6.844,6.844,0,0,1,7.848-4.175l8.069,1.829-.612,2.7-8.069-1.829a4.059,4.059,0,0,0-4.655,2.477L624.591,206.5Z" transform="translate(-405.049 -114.014)" fill="#a0aec2"/>
        <path id="Path_5253" data-name="Path 5253" d="M699.577,239.94l17.274-21.985a6.844,6.844,0,0,0-.408-8.88l-5.686-6.01-2.011,1.9,5.687,6.01a4.059,4.059,0,0,1,.242,5.267L697.4,238.231Z" transform="translate(-454.142 -132.235)" fill="#a0aec2"/>
        <path id="Path_5254" data-name="Path 5254" d="M690.1,183.41l-2.023-1.394a1.058,1.058,0,0,1-.4-1.218l.9-2.607a1.057,1.057,0,0,1,1-.711l2.576.014a1.058,1.058,0,0,1,.988,1.421L691.7,182.9a1.058,1.058,0,0,1-1.594.508" transform="translate(-447.776 -115.573)" fill="#202547"/>
        <path id="Path_5255" data-name="Path 5255" d="M623.937,272.69l-1.134-.646a15.317,15.317,0,0,1-6.786-18.768l3.164-8.433,3.7,1.389-3.164,8.433a11.379,11.379,0,0,0,5.041,13.943l1.134.646Z" transform="translate(-400.499 -159.44)" fill="#203671"/>
        <path id="Path_5256" data-name="Path 5256" d="M723.741,201.761l2.231,1.03a1.058,1.058,0,0,0,1.251-.278l1.782-2.107a1.058,1.058,0,0,0,.1-1.227l-1.325-2.209a1.057,1.057,0,0,0-1.726-.126l-2.688,3.287a1.058,1.058,0,0,0,.376,1.63" transform="translate(-470.895 -127.93)" fill="#202547"/>
        <path id="Path_5257" data-name="Path 5257" d="M640.478,301.136l1.134.646a15.317,15.317,0,0,0,19.606-3.728l5.642-7.02-3.082-2.477-5.643,7.02a11.379,11.379,0,0,1-14.566,2.77l-1.134-.646Z" transform="translate(-417.075 -187.906)" fill="#203671"/>
        <path id="Path_5258" data-name="Path 5258" d="M624.948,326.747,618.2,322.9l4.02-9.94,9.232,5.261Z" transform="translate(-402.567 -203.798)" fill="#26376a"/>
        <path id="Path_5259" data-name="Path 5259" d="M546.768,199.318a11.459,11.459,0,1,0,4.282,15.63,11.473,11.473,0,0,0-4.282-15.63m-9.977,17.507a8.691,8.691,0,1,1,11.854-3.247,8.7,8.7,0,0,1-11.854,3.247" transform="translate(-344.896 -128.817)" fill="#252b51"/>
        <path id="Path_5260" data-name="Path 5260" d="M553.811,218.743a8.691,8.691,0,1,1-3.248-11.855,8.7,8.7,0,0,1,3.248,11.855" transform="translate(-350.062 -133.983)" fill="#fefbfd"/>
        <path id="Path_5261" data-name="Path 5261" d="M556.273,222.128a6.22,6.22,0,1,1-2.324-8.484,6.22,6.22,0,0,1,2.324,8.484" transform="translate(-354.671 -138.592)" fill="#9390c5"/>
        <path id="Path_5262" data-name="Path 5262" d="M560.376,227.767a2.11,2.11,0,1,1-.789-2.878,2.11,2.11,0,0,1,.789,2.878" transform="translate(-362.345 -146.266)" fill="#424d9c"/>
        <path id="Path_5263" data-name="Path 5263" d="M551.638,573.6a26.99,26.99,0,0,0-4.986,4.149,22.058,22.058,0,0,0-3.739,5.254,16.728,16.728,0,0,0-1.15,3c-.062.261-.144.516-.19.78l-.165.8a5.838,5.838,0,0,1-.584,1.585,8.955,8.955,0,0,1-2.169,2.539,26.835,26.835,0,0,1-2.664,1.935,51.812,51.812,0,0,0-5.294,3.7,12.8,12.8,0,0,0-3.761,4.954,13.219,13.219,0,0,0-.783,6.143,26.435,26.435,0,0,0,1.412,6.183l.155.44c-.14.942-.173,1.552-.173,1.552s-.484-.477-1.2-1.327l-.078-.24a27.6,27.6,0,0,1-1.307-6.52,16.715,16.715,0,0,1,.117-3.366,12.606,12.606,0,0,1,.911-3.261,12.23,12.23,0,0,1,1.77-2.881,15.992,15.992,0,0,1,2.39-2.334,52.525,52.525,0,0,1,5.473-3.614,26.742,26.742,0,0,0,2.651-1.82,8.411,8.411,0,0,0,2.1-2.327,5.335,5.335,0,0,0,.574-1.442l.187-.794c.056-.271.146-.53.218-.8a17.111,17.111,0,0,1,1.255-3.038,22.356,22.356,0,0,1,3.922-5.217,27.073,27.073,0,0,1,5.108-4.03" transform="translate(-341.83 -373.526)" fill="#fff"/>
        <path id="Path_5264" data-name="Path 5264" d="M474.087,568.585a27,27,0,0,1,3.529,5.442,22.06,22.06,0,0,1,2.01,6.127,16.7,16.7,0,0,1,.208,3.207c-.018.267-.015.535-.049.8l-.079.81a5.837,5.837,0,0,0,.087,1.687,8.963,8.963,0,0,0,1.317,3.068,26.717,26.717,0,0,0,1.97,2.639,51.783,51.783,0,0,1,3.958,5.1,12.8,12.8,0,0,1,2.121,5.847,13.213,13.213,0,0,1-1.077,6.1A26.416,26.416,0,0,1,484.9,614.9l-.279.375c-.146.941-.3,1.534-.3,1.534s.6-.312,1.538-.912l.146-.206a27.627,27.627,0,0,0,3.183-5.838,16.715,16.715,0,0,0,.887-3.249,12.609,12.609,0,0,0,.1-3.385,12.228,12.228,0,0,0-.834-3.277,16.009,16.009,0,0,0-1.59-2.939,52.514,52.514,0,0,0-4.153-5.076,26.719,26.719,0,0,1-1.991-2.524,8.413,8.413,0,0,1-1.315-2.845,5.355,5.355,0,0,1-.12-1.548l.058-.813c.027-.275.018-.55.029-.826a17.128,17.128,0,0,0-.3-3.273,22.38,22.38,0,0,0-2.2-6.147,27.091,27.091,0,0,0-3.681-5.365" transform="translate(-308.722 -370.259)" fill="#fff"/>
        <path id="Path_5265" data-name="Path 5265" d="M214.01,130.174A21.175,21.175,0,1,1,176.171,117.1s0,0,0,0a21.177,21.177,0,0,1,37.835,13.076" transform="translate(-111.784 -70.977)" fill="#3d4999"/>
        <path id="Path_5266" data-name="Path 5266" d="M219.674,142.471h-4.439v-4.439a2.391,2.391,0,0,0-2.39-2.39h-5.327a2.391,2.391,0,0,0-2.39,2.39v4.439h-4.439a2.39,2.39,0,0,0-2.39,2.39v5.327a2.39,2.39,0,0,0,2.39,2.39h4.439v4.439a2.39,2.39,0,0,0,2.39,2.39h5.327a2.39,2.39,0,0,0,2.39-2.39v-4.439h4.439a2.39,2.39,0,0,0,2.39-2.39v-5.327a2.39,2.39,0,0,0-2.39-2.39" transform="translate(-129.13 -88.329)" fill="#fff"/>
        <g id="Group_796" data-name="Group 796" transform="translate(59.876 46.124)" opacity="0.7" style="mix-blend-mode: multiply;isolation: isolate">
          <g id="Group_795" data-name="Group 795">
            <g id="Group_794" data-name="Group 794" clip-path="url(#clip-path-11)">
              <path id="Path_5267" data-name="Path 5267" d="M212.8,152.368a21.178,21.178,0,1,1-36.63-20.134,21.177,21.177,0,0,0,36.63,20.134" transform="translate(-171.659 -132.234)" fill="#3d4999"/>
            </g>
          </g>
        </g>
        <path id="Path_5268" data-name="Path 5268" d="M613.33,16.985c0,.5-.021,1-.066,1.506a16.937,16.937,0,0,1-.96,4.3,17,17,0,0,1-2.583,4.644l.012.015-.117.117a17.946,17.946,0,0,1-1.26,1.41L592.506,44.832l-6.626,6.627-.075-.078-.078.078-22.48-22.48a17.854,17.854,0,0,1-1.257-1.41l-.117-.117.015-.015a16.87,16.87,0,0,1-2.7-4.976A16.973,16.973,0,0,1,585.8,3.681a16.973,16.973,0,0,1,27.525,13.3" transform="translate(-363.545 0)" fill="#de142d"/>
        <path id="Path_5269" data-name="Path 5269" d="M560.886,44.228a16.3,16.3,0,0,0,.974,2.289H575.3l2.07-3.407,6.019,12.209,4.237-14.576,5.411,14.674,5.061-13.16,2,4.594H612.97A16.538,16.538,0,0,0,614,44.562H601.6l-3.636-8.337-4.882,12.7-5.712-15.494-4.535,15.592-5.258-10.665-3.567,5.872Z" transform="translate(-365.245 -21.769)" fill="#fff"/>
        <g id="Group_799" data-name="Group 799" transform="translate(194.73 6.429)" opacity="0.7" style="mix-blend-mode: multiply;isolation: isolate">
          <g id="Group_798" data-name="Group 798">
            <g id="Group_797" data-name="Group 797" clip-path="url(#clip-path-12)">
              <path id="Path_5270" data-name="Path 5270" d="M590.536,58.8l-4.656,4.656-.075-.078-.078.078-22.48-22.48a17.852,17.852,0,0,1-1.257-1.41l-.117-.117.015-.015a16.877,16.877,0,0,1-2.7-4.977,16.972,16.972,0,0,1,2.763-16.03,18.585,18.585,0,0,0,.624,9.719,17.948,17.948,0,0,0,1.068,2.508,18.374,18.374,0,0,0,1.893,2.946l-.015.015.129.129a18.851,18.851,0,0,0,1.377,1.542Z" transform="translate(-558.275 -18.43)" fill="#de142d"/>
            </g>
          </g>
        </g>
        <path id="Path_5271" data-name="Path 5271" d="M277.937,460.111a.327.327,0,0,0,0-.057v0l0-.006Z" transform="translate(-180.989 -299.578)" fill="#8e8e8e"/>
        <g id="Group_802" data-name="Group 802" transform="translate(92.947 171.731)" style="mix-blend-mode: multiply;isolation: isolate">
          <g id="Group_801" data-name="Group 801">
            <g id="Group_800" data-name="Group 800" clip-path="url(#clip-path-13)">
              <path id="Path_5272" data-name="Path 5272" d="M285.18,537.724s-7,3.647-18.709,1.368c0,0,1.32-8.621,2.475-19.462.423-3.981.825-8.258,1.128-12.518.3-4.232.513-8.447.555-12.332q.014-1.228.015-2.442c.639,16.037,3.363,43.706,14.537,45.386" transform="translate(-266.471 -492.338)" fill="#a3acc4"/>
            </g>
          </g>
        </g>
      </g>
    </g>
  </g>
</svg>
