<svg xmlns="http://www.w3.org/2000/svg" viewBox="0 0 30 30"><defs><style>.cls-1{fill:#4d4d4d;}</style></defs><g id="Layer_2" data-name="Layer 2"><g id="Layer_1-2" data-name="Layer 1"><path class="cls-1" d="M28.46,13.44h0l-23.21,0L16.09,2.63A1.54,1.54,0,0,0,13.91.45L.45,13.91a1.9,1.9,0,0,0-.31.45s0,0,0,.05a1.87,1.87,0,0,0-.07.22.64.64,0,0,1,0,.07A1.53,1.53,0,0,0,0,15H0s0,.05,0,.07a1.64,1.64,0,0,0,0,.23,1.06,1.06,0,0,0,.06.19.32.32,0,0,0,0,.09.9.9,0,0,0,.12.24,0,0,0,0,1,0,0,1.79,1.79,0,0,0,.22.25L13.91,29.55a1.54,1.54,0,0,0,2.18-2.18L5.25,16.54l23.21,0a1.54,1.54,0,1,0,0-3.07Z"/></g></g></svg>