<svg xmlns="http://www.w3.org/2000/svg" viewBox="0 0 30 30"><defs><style>.cls-1{fill:#4d4d4d;}</style></defs><g id="Layer_2" data-name="Layer 2"><g id="Layer_1-2" data-name="Layer 1"><path class="cls-1" d="M29.88,15.58a.32.32,0,0,0,0-.09A1.06,1.06,0,0,0,30,15.3a1.64,1.64,0,0,0,0-.23s0,0,0-.07h0a1.53,1.53,0,0,0,0-.3.64.64,0,0,1,0-.07,1.87,1.87,0,0,0-.07-.22l0-.05a1.48,1.48,0,0,0-.3-.45L16.09.45a1.54,1.54,0,0,0-2.18,2.18L24.75,13.46l-23.21,0h0a1.54,1.54,0,1,0,0,3.07l23.21,0L13.91,27.37a1.54,1.54,0,0,0,2.18,2.18L29.53,16.1a1.27,1.27,0,0,0,.21-.25l0,0A.9.9,0,0,0,29.88,15.58Z"/></g></g></svg>